<svg style="display:none">
	<symbol id="PrismaJs" viewBox="0 0 37 45" fill="none" xmlns="http://www.w3.org/2000/svg"><g clip-path="url(#clip0_139_2308)"><path fill-rule="evenodd" clip-rule="evenodd" d="M36.2318 34.2414L20.9256 1.73651C20.7355 1.33647 20.4407 0.995301 20.0724 0.749104C19.7042 0.502907 19.2763 0.360845 18.8339 0.337954C18.3908 0.308263 17.948 0.400644 17.5537 0.605048C17.1594 0.809453 16.8287 1.11806 16.5976 1.49729L-0.0036881 28.3858C-0.256137 28.7918 -0.387605 29.2614 -0.382679 29.7394C-0.377752 30.2175 -0.236635 30.6842 0.0241272 31.085L8.14063 43.6541C8.44769 44.126 8.89907 44.4859 9.42742 44.6802C9.95577 44.8745 10.5328 44.8927 11.0724 44.7323L34.6263 37.7651C34.981 37.6614 35.3092 37.4828 35.5889 37.2413C35.8686 36.9998 36.0931 36.7012 36.2474 36.3654C36.3996 36.0314 36.4771 35.6683 36.4746 35.3013C36.4721 34.9343 36.3896 34.5722 36.233 34.2403L36.2318 34.2414ZM32.805 35.6356L12.818 41.5457C12.2083 41.7271 11.6231 41.1986 11.7499 40.5833L18.8907 6.39167C19.0242 5.75192 19.9076 5.65067 20.1869 6.24258L33.4058 34.3138C33.4643 34.4389 33.4949 34.5751 33.4955 34.7132C33.4962 34.8513 33.4669 34.9878 33.4097 35.1135C33.3525 35.2391 33.2687 35.3509 33.1641 35.441C33.0595 35.5311 32.9377 35.5975 32.805 35.6356Z" fill="#0C344B"/></g><defs><clipPath id="clip0_139_2308"><rect width="36.846" height="45" fill="white"/></clipPath></defs></symbol>
	<symbol id="NextJs" viewBox="0 0 43 43" fill="none" xmlns="http://www.w3.org/2000/svg"><g clip-path="url(#clip0_139_2312)"><path d="M21.5 0C9.64141 0 0 9.64141 0 21.5C0 33.3586 9.64141 43 21.5 43C25.2625 43 28.7898 42.0258 31.8469 40.3461L16.2594 18.5773V30.8727H13.975V14.0422H16.2594L33.2242 39.5062C39.1031 35.6766 43 29.0586 43 21.5C43 9.64141 33.3586 0 21.5 0ZM28.9242 28.4203L26.4047 24.6242V14.0422H28.9242V28.4203Z" fill="white"/></g><defs><clipPath id="clip0_139_2312"><rect width="43" height="43" fill="white"/></clipPath></defs></symbol>
	<symbol id="Express" viewBox="0 0 43 25" fill="none" xmlns="http://www.w3.org/2000/svg"><path d="M42.554 24.0695C41.0221 24.4592 40.0748 24.0863 39.2248 22.8097C37.3167 19.9509 35.2104 17.2231 33.178 14.4449C32.9159 14.0854 32.6438 13.7327 32.3045 13.2859C29.8992 16.531 27.4973 19.6217 25.2431 22.8366C24.4369 23.9855 23.5903 24.486 22.0853 24.0796L31.1288 11.9421L22.7102 0.980493C24.158 0.698305 25.1591 0.842759 26.046 2.13948C28.0045 5.00167 30.1646 7.72612 32.318 10.6085C34.4848 7.7362 36.618 5.00838 38.6336 2.17307C39.4432 1.02416 40.3133 0.587446 41.7679 1.01073C40.666 2.47206 39.5877 3.90987 38.5026 5.3376C37.0379 7.26252 35.6001 9.21096 34.0816 11.0956C33.5408 11.7674 33.6281 12.2042 34.1119 12.8391C36.9203 16.531 39.6952 20.2599 42.554 24.0695ZM0.447578 11.7406C0.689453 10.5278 0.850703 9.29159 1.18664 8.10237C3.20227 0.903227 11.4663 -2.08998 17.1437 2.37127C20.4695 4.98823 21.2959 8.67682 21.1313 12.8357H2.38594C2.10375 20.2969 7.47539 24.8018 14.3218 22.504C16.7238 21.6978 18.138 19.8165 18.8469 17.4649C19.2063 16.2858 19.8009 16.101 20.9095 16.437C20.3418 19.3798 19.0552 21.8389 16.3677 23.3774C12.3364 25.682 6.5818 24.9362 3.555 21.7347C1.76781 19.8535 1.00859 17.512 0.672656 14.9824C0.622266 14.5792 0.518125 14.1828 0.4375 13.7831C0.444219 13.1022 0.447578 12.4214 0.447578 11.7406ZM2.41953 11.24H19.3609C19.25 5.84487 15.8906 2.01182 11.2984 1.97823C6.2593 1.93792 2.63789 5.68026 2.41953 11.24Z" fill="white"/></symbol>
	<symbol id="PostgreSQL" xmlns="http://www.w3.org/2000/svg" viewBox="0 0 128 128"><path d="M93.809 92.112c.785-6.533.55-7.492 5.416-6.433l1.235.108c3.742.17 8.637-.602 11.513-1.938 6.191-2.873 9.861-7.668 3.758-6.409-13.924 2.873-14.881-1.842-14.881-1.842 14.703-21.815 20.849-49.508 15.543-56.287-14.47-18.489-39.517-9.746-39.936-9.52l-.134.025c-2.751-.571-5.83-.912-9.289-.968-6.301-.104-11.082 1.652-14.709 4.402 0 0-44.683-18.409-42.604 23.151.442 8.841 12.672 66.898 27.26 49.362 5.332-6.412 10.484-11.834 10.484-11.834 2.558 1.699 5.622 2.567 8.834 2.255l.249-.212c-.078.796-.044 1.575.099 2.497-3.757 4.199-2.653 4.936-10.166 6.482-7.602 1.566-3.136 4.355-.221 5.084 3.535.884 11.712 2.136 17.238-5.598l-.22.882c1.474 1.18 1.375 8.477 1.583 13.69.209 5.214.558 10.079 1.621 12.948 1.063 2.868 2.317 10.256 12.191 8.14 8.252-1.764 14.561-4.309 15.136-27.985"/><path d="M75.458 125.256c-4.367 0-7.211-1.689-8.938-3.32-2.607-2.46-3.641-5.629-4.259-7.522l-.267-.79c-1.244-3.358-1.666-8.193-1.916-14.419-.038-.935-.064-1.898-.093-2.919-.021-.747-.047-1.684-.085-2.664a18.8 18.8 0 01-4.962 1.568c-3.079.526-6.389.356-9.84-.507-2.435-.609-4.965-1.871-6.407-3.82-4.203 3.681-8.212 3.182-10.396 2.453-3.853-1.285-7.301-4.896-10.542-11.037-2.309-4.375-4.542-10.075-6.638-16.943-3.65-11.96-5.969-24.557-6.175-28.693C4.292 23.698 7.777 14.44 15.296 9.129 27.157.751 45.128 5.678 51.68 7.915c4.402-2.653 9.581-3.944 15.433-3.851 3.143.051 6.136.327 8.916.823 2.9-.912 8.628-2.221 15.185-2.139 12.081.144 22.092 4.852 28.949 13.615 4.894 6.252 2.474 19.381.597 26.651-2.642 10.226-7.271 21.102-12.957 30.57 1.544.011 3.781-.174 6.961-.831 6.274-1.295 8.109 2.069 8.607 3.575 1.995 6.042-6.677 10.608-9.382 11.864-3.466 1.609-9.117 2.589-13.745 2.377l-.202-.013-1.216-.107-.12 1.014-.116.991c-.311 11.999-2.025 19.598-5.552 24.619-3.697 5.264-8.835 6.739-13.361 7.709-1.544.33-2.947.474-4.219.474zm-9.19-43.671c2.819 2.256 3.066 6.501 3.287 14.434.028.99.054 1.927.089 2.802.106 2.65.355 8.855 1.327 11.477.137.371.26.747.39 1.146 1.083 3.316 1.626 4.979 6.309 3.978 3.931-.843 5.952-1.599 7.534-3.851 2.299-3.274 3.585-9.86 3.821-19.575l4.783.116-4.75-.57.14-1.186c.455-3.91.783-6.734 3.396-8.602 2.097-1.498 4.486-1.353 6.389-1.01-2.091-1.58-2.669-3.433-2.823-4.193l-.399-1.965 1.121-1.663c6.457-9.58 11.781-21.354 14.609-32.304 2.906-11.251 2.02-17.226 1.134-18.356-11.729-14.987-32.068-8.799-34.192-8.097l-.359.194-1.8.335-.922-.191c-2.542-.528-5.366-.82-8.393-.869-4.756-.08-8.593 1.044-11.739 3.431l-2.183 1.655-2.533-1.043c-5.412-2.213-21.308-6.662-29.696-.721-4.656 3.298-6.777 9.76-6.305 19.207.156 3.119 2.275 14.926 5.771 26.377 4.831 15.825 9.221 21.082 11.054 21.693.32.108 1.15-.537 1.976-1.529a270.708 270.708 0 0110.694-12.07l2.77-2.915 3.349 2.225c1.35.897 2.839 1.406 4.368 1.502l7.987-6.812-1.157 11.808c-.026.265-.039.626.065 1.296l.348 2.238-1.51 1.688-.174.196 4.388 2.025 1.836-2.301z"/><path fill="#336791" d="M115.731 77.44c-13.925 2.873-14.882-1.842-14.882-1.842 14.703-21.816 20.849-49.51 15.545-56.287C101.924.823 76.875 9.566 76.457 9.793l-.135.024c-2.751-.571-5.83-.911-9.291-.967-6.301-.103-11.08 1.652-14.707 4.402 0 0-44.684-18.408-42.606 23.151.442 8.842 12.672 66.899 27.26 49.363 5.332-6.412 10.483-11.834 10.483-11.834 2.559 1.699 5.622 2.567 8.833 2.255l.25-.212c-.078.796-.042 1.575.1 2.497-3.758 4.199-2.654 4.936-10.167 6.482-7.602 1.566-3.136 4.355-.22 5.084 3.534.884 11.712 2.136 17.237-5.598l-.221.882c1.473 1.18 2.507 7.672 2.334 13.557-.174 5.885-.29 9.926.871 13.082 1.16 3.156 2.316 10.256 12.192 8.14 8.252-1.768 12.528-6.351 13.124-13.995.422-5.435 1.377-4.631 1.438-9.49l.767-2.3c.884-7.367.14-9.743 5.225-8.638l1.235.108c3.742.17 8.639-.602 11.514-1.938 6.19-2.871 9.861-7.667 3.758-6.408z"/><path fill="#fff" d="M75.957 122.307c-8.232 0-10.84-6.519-11.907-9.185-1.562-3.907-1.899-19.069-1.551-31.503a1.59 1.59 0 011.64-1.55 1.594 1.594 0 011.55 1.639c-.401 14.341.168 27.337 1.324 30.229 1.804 4.509 4.54 8.453 12.275 6.796 7.343-1.575 10.093-4.359 11.318-11.46.94-5.449 2.799-20.951 3.028-24.01a1.593 1.593 0 011.71-1.472 1.597 1.597 0 011.472 1.71c-.239 3.185-2.089 18.657-3.065 24.315-1.446 8.387-5.185 12.191-13.794 14.037-1.463.313-2.792.453-4 .454zM31.321 90.466a6.71 6.71 0 01-2.116-.35c-5.347-1.784-10.44-10.492-15.138-25.885-3.576-11.717-5.842-23.947-6.041-27.922-.589-11.784 2.445-20.121 9.02-24.778 13.007-9.216 34.888-.44 35.813-.062a1.596 1.596 0 01-1.207 2.955c-.211-.086-21.193-8.492-32.768-.285-5.622 3.986-8.203 11.392-7.672 22.011.167 3.349 2.284 15.285 5.906 27.149 4.194 13.742 8.967 22.413 13.096 23.79.648.216 2.62.873 5.439-2.517A245.272 245.272 0 0145.88 73.046a1.596 1.596 0 012.304 2.208c-.048.05-4.847 5.067-10.077 11.359-2.477 2.979-4.851 3.853-6.786 3.853zm69.429-13.445a1.596 1.596 0 01-1.322-2.487c14.863-22.055 20.08-48.704 15.612-54.414-5.624-7.186-13.565-10.939-23.604-11.156-7.433-.16-13.341 1.738-14.307 2.069l-.243.099c-.971.305-1.716-.227-1.997-.849a1.6 1.6 0 01.631-2.025c.046-.027.192-.089.429-.176l-.021.006.021-.007c1.641-.601 7.639-2.4 15.068-2.315 11.108.118 20.284 4.401 26.534 12.388 2.957 3.779 2.964 12.485.019 23.887-3.002 11.625-8.651 24.118-15.497 34.277-.306.457-.81.703-1.323.703zm.76 10.21c-2.538 0-4.813-.358-6.175-1.174-1.4-.839-1.667-1.979-1.702-2.584-.382-6.71 3.32-7.878 5.208-8.411-.263-.398-.637-.866-1.024-1.349-1.101-1.376-2.609-3.26-3.771-6.078-.182-.44-.752-1.463-1.412-2.648-3.579-6.418-11.026-19.773-6.242-26.612 2.214-3.165 6.623-4.411 13.119-3.716C97.6 28.837 88.5 10.625 66.907 10.271c-6.494-.108-11.82 1.889-15.822 5.93-8.96 9.049-8.636 25.422-8.631 25.586a1.595 1.595 0 11-3.19.084c-.02-.727-.354-17.909 9.554-27.916C53.455 9.272 59.559 6.96 66.96 7.081c13.814.227 22.706 7.25 27.732 13.101 5.479 6.377 8.165 13.411 8.386 15.759.165 1.746-1.088 2.095-1.341 2.147l-.576.013c-6.375-1.021-10.465-.312-12.156 2.104-3.639 5.201 3.406 17.834 6.414 23.229.768 1.376 1.322 2.371 1.576 2.985.988 2.396 2.277 4.006 3.312 5.3.911 1.138 1.7 2.125 1.982 3.283.131.23 1.99 2.98 13.021.703 2.765-.57 4.423-.083 4.93 1.45.997 3.015-4.597 6.532-7.694 7.97-2.775 1.29-7.204 2.106-11.036 2.106zm-4.696-4.021c.35.353 2.101.962 5.727.806 3.224-.138 6.624-.839 8.664-1.786 2.609-1.212 4.351-2.567 5.253-3.492l-.5.092c-7.053 1.456-12.042 1.262-14.828-.577a6.162 6.162 0 01-.54-.401c-.302.119-.581.197-.78.253-1.58.443-3.214.902-2.996 5.105zm-45.562 8.915c-1.752 0-3.596-.239-5.479-.71-1.951-.488-5.24-1.957-5.19-4.37.057-2.707 3.994-3.519 5.476-3.824 5.354-1.103 5.703-1.545 7.376-3.67.488-.619 1.095-1.39 1.923-2.314 1.229-1.376 2.572-2.073 3.992-2.073.989 0 1.8.335 2.336.558 1.708.708 3.133 2.42 3.719 4.467.529 1.847.276 3.625-.71 5.006-3.237 4.533-7.886 6.93-13.443 6.93zm-7.222-4.943c.481.372 1.445.869 2.518 1.137 1.631.408 3.213.615 4.705.615 4.546 0 8.196-1.882 10.847-5.594.553-.774.387-1.757.239-2.274-.31-1.083-1.08-2.068-1.873-2.397-.43-.178-.787-.314-1.115-.314-.176 0-.712 0-1.614 1.009a41.146 41.146 0 00-1.794 2.162c-2.084 2.646-3.039 3.544-9.239 4.821-1.513.31-2.289.626-2.674.835zm12.269-7.36a1.596 1.596 0 01-1.575-1.354 8.218 8.218 0 01-.08-.799c-4.064-.076-7.985-1.82-10.962-4.926-3.764-3.927-5.477-9.368-4.699-14.927.845-6.037.529-11.366.359-14.229-.047-.796-.081-1.371-.079-1.769.003-.505.013-1.844 4.489-4.113 1.592-.807 4.784-2.215 8.271-2.576 5.777-.597 9.585 1.976 10.725 7.246 3.077 14.228.244 20.521-1.825 25.117-.385.856-.749 1.664-1.04 2.447l-.257.69c-1.093 2.931-2.038 5.463-1.748 7.354a1.595 1.595 0 01-1.335 1.819l-.244.02zM42.464 42.26l.062 1.139c.176 2.974.504 8.508-.384 14.86-.641 4.585.759 9.06 3.843 12.276 2.437 2.542 5.644 3.945 8.94 3.945h.068c.369-1.555.982-3.197 1.642-4.966l.255-.686c.329-.884.714-1.74 1.122-2.646 1.991-4.424 4.47-9.931 1.615-23.132-.565-2.615-1.936-4.128-4.189-4.627-4.628-1.022-11.525 2.459-12.974 3.837zm9.63-.677c-.08.564 1.033 2.07 2.485 2.271 1.449.203 2.689-.975 2.768-1.539.079-.564-1.033-1.186-2.485-1.388-1.451-.202-2.691.092-2.768.656zm2.818 2.826l-.407-.028c-.9-.125-1.81-.692-2.433-1.518-.219-.29-.576-.852-.505-1.354.101-.736.999-1.177 2.4-1.177.313 0 .639.023.967.069.766.106 1.477.327 2.002.62.91.508.977 1.075.936 1.368-.112.813-1.405 2.02-2.96 2.02zm-2.289-2.732c.045.348.907 1.496 2.029 1.651l.261.018c1.036 0 1.81-.815 1.901-1.082-.096-.182-.762-.634-2.025-.81a5.823 5.823 0 00-.821-.059c-.812 0-1.243.183-1.345.282zm43.605-1.245c.079.564-1.033 2.07-2.484 2.272-1.45.202-2.691-.975-2.771-1.539-.076-.564 1.036-1.187 2.486-1.388 1.45-.203 2.689.092 2.769.655zm-2.819 2.56c-1.396 0-2.601-1.086-2.7-1.791-.115-.846 1.278-1.489 2.712-1.688.316-.044.629-.066.93-.066 1.238 0 2.058.363 2.14.949.053.379-.238.964-.739 1.492-.331.347-1.026.948-1.973 1.079l-.37.025zm.943-3.013c-.276 0-.564.021-.856.061-1.441.201-2.301.779-2.259 1.089.048.341.968 1.332 2.173 1.332l.297-.021c.787-.109 1.378-.623 1.66-.919.443-.465.619-.903.598-1.052-.028-.198-.56-.49-1.613-.49zm3.965 32.843a1.594 1.594 0 01-1.324-2.483c3.398-5.075 2.776-10.25 2.175-15.255-.257-2.132-.521-4.337-.453-6.453.07-2.177.347-3.973.614-5.71.317-2.058.617-4.002.493-6.31a1.595 1.595 0 113.186-.172c.142 2.638-.197 4.838-.525 6.967-.253 1.643-.515 3.342-.578 5.327-.061 1.874.178 3.864.431 5.97.64 5.322 1.365 11.354-2.691 17.411a1.596 1.596 0 01-1.328.708z"/></symbol>
	<symbol id="MongoDB" xmlns="http://www.w3.org/2000/svg" viewBox="0 0 128 128"><path fill-rule="evenodd" clip-rule="evenodd" fill="#439934" d="M88.038 42.812c1.605 4.643 2.761 9.383 3.141 14.296.472 6.095.256 12.147-1.029 18.142-.035.165-.109.32-.164.48-.403.001-.814-.049-1.208.012-3.329.523-6.655 1.065-9.981 1.604-3.438.557-6.881 1.092-10.313 1.687-1.216.21-2.721-.041-3.212 1.641-.014.046-.154.054-.235.08l.166-10.051-.169-24.252 1.602-.275c2.62-.429 5.24-.864 7.862-1.281 3.129-.497 6.261-.98 9.392-1.465 1.381-.215 2.764-.412 4.148-.618z"/><path fill-rule="evenodd" clip-rule="evenodd" fill="#45A538" d="M61.729 110.054c-1.69-1.453-3.439-2.842-5.059-4.37-8.717-8.222-15.093-17.899-18.233-29.566-.865-3.211-1.442-6.474-1.627-9.792-.13-2.322-.318-4.665-.154-6.975.437-6.144 1.325-12.229 3.127-18.147l.099-.138c.175.233.427.439.516.702 1.759 5.18 3.505 10.364 5.242 15.551 5.458 16.3 10.909 32.604 16.376 48.9.107.318.384.579.583.866l-.87 2.969z"/><path fill-rule="evenodd" clip-rule="evenodd" fill="#46A037" d="M88.038 42.812c-1.384.206-2.768.403-4.149.616-3.131.485-6.263.968-9.392 1.465-2.622.417-5.242.852-7.862 1.281l-1.602.275-.012-1.045c-.053-.859-.144-1.717-.154-2.576-.069-5.478-.112-10.956-.18-16.434-.042-3.429-.105-6.857-.175-10.285-.043-2.13-.089-4.261-.185-6.388-.052-1.143-.236-2.28-.311-3.423-.042-.657.016-1.319.029-1.979.817 1.583 1.616 3.178 2.456 4.749 1.327 2.484 3.441 4.314 5.344 6.311 7.523 7.892 12.864 17.068 16.193 27.433z"/><path fill-rule="evenodd" clip-rule="evenodd" fill="#409433" d="M65.036 80.753c.081-.026.222-.034.235-.08.491-1.682 1.996-1.431 3.212-1.641 3.432-.594 6.875-1.13 10.313-1.687 3.326-.539 6.652-1.081 9.981-1.604.394-.062.805-.011 1.208-.012-.622 2.22-1.112 4.488-1.901 6.647-.896 2.449-1.98 4.839-3.131 7.182a49.142 49.142 0 01-6.353 9.763c-1.919 2.308-4.058 4.441-6.202 6.548-1.185 1.165-2.582 2.114-3.882 3.161l-.337-.23-1.214-1.038-1.256-2.753a41.402 41.402 0 01-1.394-9.838l.023-.561.171-2.426c.057-.828.133-1.655.168-2.485.129-2.982.241-5.964.359-8.946z"/><path fill-rule="evenodd" clip-rule="evenodd" fill="#4FAA41" d="M65.036 80.753c-.118 2.982-.23 5.964-.357 8.947-.035.83-.111 1.657-.168 2.485l-.765.289c-1.699-5.002-3.399-9.951-5.062-14.913-2.75-8.209-5.467-16.431-8.213-24.642a4498.887 4498.887 0 00-6.7-19.867c-.105-.31-.407-.552-.617-.826l4.896-9.002c.168.292.39.565.496.879a6167.476 6167.476 0 016.768 20.118c2.916 8.73 5.814 17.467 8.728 26.198.116.349.308.671.491 1.062l.67-.78-.167 10.052z"/><path fill-rule="evenodd" clip-rule="evenodd" fill="#4AA73C" d="M43.155 32.227c.21.274.511.516.617.826a4498.887 4498.887 0 016.7 19.867c2.746 8.211 5.463 16.433 8.213 24.642 1.662 4.961 3.362 9.911 5.062 14.913l.765-.289-.171 2.426-.155.559c-.266 2.656-.49 5.318-.814 7.968-.163 1.328-.509 2.632-.772 3.947-.198-.287-.476-.548-.583-.866-5.467-16.297-10.918-32.6-16.376-48.9a3888.972 3888.972 0 00-5.242-15.551c-.089-.263-.34-.469-.516-.702l3.272-8.84z"/><path fill-rule="evenodd" clip-rule="evenodd" fill="#57AE47" d="M65.202 70.702l-.67.78c-.183-.391-.375-.714-.491-1.062-2.913-8.731-5.812-17.468-8.728-26.198a6167.476 6167.476 0 00-6.768-20.118c-.105-.314-.327-.588-.496-.879l6.055-7.965c.191.255.463.482.562.769 1.681 4.921 3.347 9.848 5.003 14.778 1.547 4.604 3.071 9.215 4.636 13.813.105.308.47.526.714.786l.012 1.045c.058 8.082.115 16.167.171 24.251z"/><path fill-rule="evenodd" clip-rule="evenodd" fill="#60B24F" d="M65.021 45.404c-.244-.26-.609-.478-.714-.786-1.565-4.598-3.089-9.209-4.636-13.813-1.656-4.93-3.322-9.856-5.003-14.778-.099-.287-.371-.514-.562-.769 1.969-1.928 3.877-3.925 5.925-5.764 1.821-1.634 3.285-3.386 3.352-5.968.003-.107.059-.214.145-.514l.519 1.306c-.013.661-.072 1.322-.029 1.979.075 1.143.259 2.28.311 3.423.096 2.127.142 4.258.185 6.388.069 3.428.132 6.856.175 10.285.067 5.478.111 10.956.18 16.434.008.861.098 1.718.152 2.577z"/><path fill-rule="evenodd" clip-rule="evenodd" fill="#A9AA88" d="M62.598 107.085c.263-1.315.609-2.62.772-3.947.325-2.649.548-5.312.814-7.968l.066-.01.066.011a41.402 41.402 0 001.394 9.838c-.176.232-.425.439-.518.701-.727 2.05-1.412 4.116-2.143 6.166-.1.28-.378.498-.574.744l-.747-2.566.87-2.969z"/><path fill-rule="evenodd" clip-rule="evenodd" fill="#B6B598" d="M62.476 112.621c.196-.246.475-.464.574-.744.731-2.05 1.417-4.115 2.143-6.166.093-.262.341-.469.518-.701l1.255 2.754c-.248.352-.59.669-.728 1.061l-2.404 7.059c-.099.283-.437.483-.663.722l-.695-3.985z"/><path fill-rule="evenodd" clip-rule="evenodd" fill="#C2C1A7" d="M63.171 116.605c.227-.238.564-.439.663-.722l2.404-7.059c.137-.391.48-.709.728-1.061l1.215 1.037c-.587.58-.913 1.25-.717 2.097l-.369 1.208c-.168.207-.411.387-.494.624-.839 2.403-1.64 4.819-2.485 7.222-.107.305-.404.544-.614.812-.109-1.387-.22-2.771-.331-4.158z"/><path fill-rule="evenodd" clip-rule="evenodd" fill="#CECDB7" d="M63.503 120.763c.209-.269.506-.508.614-.812.845-2.402 1.646-4.818 2.485-7.222.083-.236.325-.417.494-.624l-.509 5.545c-.136.157-.333.294-.398.477-.575 1.614-1.117 3.24-1.694 4.854-.119.333-.347.627-.525.938-.158-.207-.441-.407-.454-.623-.051-.841-.016-1.688-.013-2.533z"/><path fill-rule="evenodd" clip-rule="evenodd" fill="#DBDAC7" d="M63.969 123.919c.178-.312.406-.606.525-.938.578-1.613 1.119-3.239 1.694-4.854.065-.183.263-.319.398-.477l.012 3.64-1.218 3.124-1.411-.495z"/><path fill-rule="evenodd" clip-rule="evenodd" fill="#EBE9DC" d="M65.38 124.415l1.218-3.124.251 3.696-1.469-.572z"/><path fill-rule="evenodd" clip-rule="evenodd" fill="#CECDB7" d="M67.464 110.898c-.196-.847.129-1.518.717-2.097l.337.23-1.054 1.867z"/><path fill-rule="evenodd" clip-rule="evenodd" fill="#4FAA41" d="M64.316 95.172l-.066-.011-.066.01.155-.559-.023.56z"/></symbol>
	<symbol id="JavaScript" xmlns="http://www.w3.org/2000/svg" viewBox="0 0 128 128"><path fill="#F0DB4F" d="M1.408 1.408h125.184v125.185H1.408z"/><path fill="#323330" d="M116.347 96.736c-.917-5.711-4.641-10.508-15.672-14.981-3.832-1.761-8.104-3.022-9.377-5.926-.452-1.69-.512-2.642-.226-3.665.821-3.32 4.784-4.355 7.925-3.403 2.023.678 3.938 2.237 5.093 4.724 5.402-3.498 5.391-3.475 9.163-5.879-1.381-2.141-2.118-3.129-3.022-4.045-3.249-3.629-7.676-5.498-14.756-5.355l-3.688.477c-3.534.893-6.902 2.748-8.877 5.235-5.926 6.724-4.236 18.492 2.975 23.335 7.104 5.332 17.54 6.545 18.873 11.531 1.297 6.104-4.486 8.08-10.234 7.378-4.236-.881-6.592-3.034-9.139-6.949-4.688 2.713-4.688 2.713-9.508 5.485 1.143 2.499 2.344 3.63 4.26 5.795 9.068 9.198 31.76 8.746 35.83-5.176.165-.478 1.261-3.666.38-8.581zM69.462 58.943H57.753l-.048 30.272c0 6.438.333 12.34-.714 14.149-1.713 3.558-6.152 3.117-8.175 2.427-2.059-1.012-3.106-2.451-4.319-4.485-.333-.584-.583-1.036-.667-1.071l-9.52 5.83c1.583 3.249 3.915 6.069 6.902 7.901 4.462 2.678 10.459 3.499 16.731 2.059 4.082-1.189 7.604-3.652 9.448-7.401 2.666-4.915 2.094-10.864 2.07-17.444.06-10.735.001-21.468.001-32.237z"/></symbol>
	<symbol id="NestJS" xmlns="http://www.w3.org/2000/svg" viewBox="0 0 128 128"><path fill="#DF234F" d="M75.4.3c-.9 0-1.8.2-2.6.5 1.7 1.1 2.6 2.6 3.1 4.3 0 .2.1.4.1.6 0 .2.1.4.1.6.1 2.9-.8 3.3-1.4 5-1 2.2-.7 4.6.5 6.5.1.2.2.5.4.7-1.3-8.4 5.7-9.6 7-12.2.1-2.3-1.8-3.8-3.3-4.9C77.8.5 76.6.3 75.4.3zm10.5 1.8c-.1.8 0 .6-.1 1 0 .3 0 .6-.1.9-.1.3-.1.5-.2.8-.1.3-.2.5-.3.8-.1.2-.2.4-.3.7-.1.1-.2.3-.3.4-.1.1-.1.2-.2.3-.2.2-.3.5-.5.7l-.6.6c-.2.2-.4.4-.6.5-.7.5-1.5.9-2.2 1.4-.2.2-.5.3-.7.5-.2.2-.4.3-.6.5l-.6.6c-.2.2-.4.4-.5.7-.2.2-.3.5-.5.7-.1.3-.2.5-.4.8-.1.3-.2.5-.3.8-.1.3-.2.6-.2.8 0 .1 0 .3-.1.4 0 .1 0 .3-.1.4v1.4c0 .3 0 .5.1.8 0 .3.1.5.2.8.1.3.2.5.3.8.1.2.2.3.2.5l-7.6-2.9c-1.3-.4-2.5-.7-3.8-1-.7-.2-1.4-.3-2.1-.5-2-.4-4-.7-6-.9h-.2c-2-.2-3.9-.3-5.9-.3-1.5 0-2.9.1-4.3.2-2 .1-4 .4-6 .7l-1.5.3c-1 .2-2 .4-3 .7-.5.1-1 .3-1.5.4-.5.2-1 .4-1.4.6-.4.2-.7.3-1.1.5-.1 0-.1 0-.2.1-.3.2-.6.3-.9.5-.1 0-.2.1-.2.1-.4.2-.7.4-1 .5-.2.1-.5.2-.7.3-.1.1-.2.1-.3.2-.3.2-.6.3-.9.5-.3.2-.6.3-.8.5-.2.2-.5.3-.7.5 0 0-.1 0-.1.1-.2.1-.4.3-.6.5l-.1.1c-.2.1-.3.3-.5.4-.1 0-.1.1-.2.1-.2.1-.3.3-.5.4 0 .1-.1.1-.1.1l-.6.6-.1.1-.6.6s0 .1-.1.1l-.5.5c-.1.1-.2.1-.2.2l-.6.6c0 .1-.1.1-.1.2l-.8.8-.1.1c-.5.6-1.1 1.1-1.7 1.6-.6.5-1.2 1-1.9 1.5s-1.3.9-2 1.3-1.4.7-2.1 1c-.7.3-1.4.6-2.1.8-1.4.3-2.8.9-4 1 0-.5-.3-.4-.6-.4-.3.1-.6.1-.8.2-.3.1-.5.2-.8.3-.3.1-.5.2-.8.4-.2.2-.5.3-.7.5-.2.2-.5.4-.7.6-.2.2-.5.4-.7.6-.2.2-.4.4-.6.7-.2.3-.4.5-.5.8-.2.2-.3.5-.5.8-.1.3-.3.6-.4.9l-.3.9c-.1.3-.1.5-.2.8v.1c-.1.3-.1.7-.1.9.1-.1.1.1.1.3v.4c0 .2.1.4.1.6.1.2.1.4.2.6.1.2.2.4.4.6.1.2.3.4.4.6.2.2.4.4.6.5.2.2.4.4.6.5.8.7 1 .9 2 1.5.2.1.3.2.5.3h.1v.2c0 .3.1.5.2.8.1.3.2.6.3.8l.3.6c0 .1.1.1.1.2.1.3.3.5.4.7.2.2.3.5.5.7l.6.6.6.6H8c.2.2.4.3.6.5.2.2.5.3.7.4.2.1.5.3.8.4.2.1.4.2.7.2 0 0 .1 0 .1.1.1 0 .3.1.4.1-.1 1.8-.1 3.5.1 4.1.3.7 1.8-1.4 3.2-3.7-.2 2.3-.3 5 0 5.8.4.8 2.3-1.8 4.1-4.6 23.4-5.4 44.8 10.8 47.1 33.7-.4-3.6-4.8-5.6-6.9-5.1-1 2.4-2.7 5.6-5.4 7.5.2-2.2.1-4.4-.3-6.6-.7 3-2.1 5.9-4.1 8.3-3.1.2-6.3-1.3-7.9-3.6-.1-.1-.2-.3-.3-.4-.1-.2-.2-.5-.3-.7-.1-.2-.2-.5-.2-.7v-.7-.5c0-.2.1-.5.2-.7.1-.2.1-.5.2-.7.1-.2.2-.5.4-.7.6-1.6.6-2.9-.5-3.6l-.6-.3c-.1 0-.3-.1-.4-.1-.1 0-.2-.1-.3-.1-.2-.1-.5-.1-.7-.2-.2-.1-.5-.1-.7-.1-.2 0-.5-.1-.7-.1h-.5c-.3 0-.5 0-.7.1-.2 0-.5.1-.7.1-.2.1-.5.1-.7.2-.2.1-.4.2-.7.3l-.6.3c-7.7 5-3.1 16.8 2.1 20.2-2 .4-4 .8-4.6 1.2l-.1.1c1.4.9 2.9 1.6 4.5 2.2 2.1.7 4.4 1.3 5.4 1.6 2.7.6 5.5.8 8.3.6 14.6-1 26.6-12.2 28.8-26.8.1.3.1.6.2.9.1.6.2 1.2.3 1.9.1.3.1.6.1.9v.1c0 .3.1.6.1.9 0 .4.1.7.1 1.1V91.6c0 .3-.1.5-.1.8v.3c0 .3-.1.6-.1 1-.1.3-.1.6-.2.9v.1c-.1.3-.1.6-.2.9v.1c-.1.3-.1.6-.2.9v.1l-.3.9v.1c-.1.3-.2.7-.3 1-.1.3-.2.6-.4 1-.1.3-.2.7-.4 1-.1.3-.3.6-.4 1-.1.3-.3.6-.4.9 0 .1-.1.2-.1.2s0 .1-.1.1c-2.1 4.3-5.3 8.1-9.3 11.1-.3.2-.5.4-.8.6-.1.1-.2.1-.2.2-.2.2-.5.3-.7.5l.1.2c.5-.1.9-.1 1.4-.2.9-.1 1.7-.3 2.6-.5.2 0 .5-.1.7-.2.2 0 .3-.1.5-.1s.5-.1.7-.1c.2-.1.4-.1.6-.2 3.3-.8 6.5-1.9 9.6-3.2-5.3 7.2-12.3 13-20.5 16.8 3.8-.3 7.6-.9 11.3-2 13.3-3.9 24.5-12.9 31.2-25-1.4 7.6-4.4 14.9-8.9 21.3 3.2-2.1 6.1-4.6 8.8-7.3 7.4-7.7 12.3-17.6 13.9-28.1 1.1 5.2 1.5 10.6 1 15.9 23.9-33.3 2-67.8-7.2-76.9 0-.1-.1-.1-.1-.2v0c0 .4 0 .8-.1 1.2-.1.8-.2 1.5-.3 2.2-.2.7-.4 1.5-.6 2.2-.2.7-.5 1.4-.8 2.1-.3.7-.6 1.4-1 2-.4.6-.8 1.3-1.2 1.9-.4.6-.9 1.2-1.4 1.8-.5.6-1 1.1-1.6 1.7-.3.3-.6.6-1 .8-.3.2-.5.4-.8.7-.6.5-1.2.9-1.9 1.3-.6.4-1.3.8-2 1.1l-2.1.9c-.7.3-1.4.5-2.1.7-.7.2-1.5.4-2.2.5-.8.1-1.5.2-2.2.3-.5 0-1.1.1-1.6.1-.8 0-1.5-.1-2.2-.1-.8-.1-1.5-.2-2.2-.3-.8-.1-1.5-.3-2.2-.6.7-.1 1.5-.1 2.2-.3.8-.1 1.5-.3 2.2-.5.7-.2 1.5-.4 2.1-.7l2.1-.9c.7-.3 1.3-.7 2-1.1.6-.4 1.3-.9 1.9-1.3.6-.5 1.2-1 1.7-1.5.6-.5 1.1-1.1 1.6-1.6.5-.6 1-1.2 1.4-1.8.1-.1.1-.2.2-.3.3-.5.7-1.1 1-1.6.4-.7.7-1.3 1-2 .3-.7.6-1.4.8-2.1l.6-2.1c.1-.8.3-1.5.3-2.2.1-.8.1-1.5.1-2.2 0-.5 0-1.1-.1-1.6-.1-.8-.2-1.5-.3-2.2-.1-.8-.3-1.5-.5-2.2-.2-.7-.5-1.4-.7-2.1-.3-.7-.6-1.4-.9-2-.4-.7-.7-1.3-1.1-2-.4-.6-.9-1.2-1.3-1.8-.5-.6-1-1.1-1.5-1.7-.3-.3-.6-.6-.9-.8-1.5-1.2-3-2.2-4.6-3.2-.2-.1-.4-.2-.7-.3-1.3-1.1-2.3-1.4-3.3-1.8z"/></symbol>
	<symbol id="NodeJS" xmlns="http://www.w3.org/2000/svg" viewBox="0 0 128 128"><path fill="#83CD29" d="M112.771 30.334L68.674 4.729c-2.781-1.584-6.402-1.584-9.205 0L14.901 30.334C12.031 31.985 10 35.088 10 38.407v51.142c0 3.319 2.084 6.423 4.954 8.083l11.775 6.688c5.628 2.772 7.617 2.772 10.178 2.772 8.333 0 13.093-5.039 13.093-13.828v-50.49c0-.713-.371-1.774-1.071-1.774h-5.623C42.594 41 41 42.061 41 42.773v50.49c0 3.896-3.524 7.773-10.11 4.48L18.723 90.73c-.424-.23-.723-.693-.723-1.181V38.407c0-.482.555-.966.982-1.213l44.424-25.561c.415-.235 1.025-.235 1.439 0l43.882 25.555c.42.253.272.722.272 1.219v51.142c0 .488.183.963-.232 1.198l-44.086 25.576c-.378.227-.847.227-1.261 0l-11.307-6.749c-.341-.198-.746-.269-1.073-.086-3.146 1.783-3.726 2.02-6.677 3.043-.726.253-1.797.692.41 1.929l14.798 8.754a9.294 9.294 0 004.647 1.246c1.642 0 3.25-.426 4.667-1.246l43.885-25.582c2.87-1.672 4.23-4.764 4.23-8.083V38.407c0-3.319-1.36-6.414-4.229-8.073zM77.91 81.445c-11.726 0-14.309-3.235-15.17-9.066-.1-.628-.633-1.379-1.272-1.379h-5.731c-.709 0-1.279.86-1.279 1.566 0 7.466 4.059 16.512 23.453 16.512 14.039 0 22.088-5.455 22.088-15.109 0-9.572-6.467-12.084-20.082-13.886-13.762-1.819-15.16-2.738-15.16-5.962 0-2.658 1.184-6.203 11.374-6.203 9.105 0 12.461 1.954 13.842 8.091.118.577.645.991 1.24.991h5.754c.354 0 .692-.143.94-.396.24-.272.367-.613.335-.979-.891-10.568-7.912-15.493-22.112-15.493-12.631 0-20.166 5.334-20.166 14.275 0 9.698 7.497 12.378 19.622 13.577 14.505 1.422 15.633 3.542 15.633 6.395 0 4.955-3.978 7.066-13.309 7.066z"/></symbol>
	<symbol id="Jest" xmlns="http://www.w3.org/2000/svg" viewBox="0 0 128 128"><path fill="#99425B" d="M124.129 63.02c0-7.692-5.828-14.165-13.652-16.012L128 .113H41.16l17.563 47.043c-7.578 1.996-13.164 8.356-13.164 15.903 0 5.546 3.058 10.464 7.703 13.496-1.832 2.367-3.953 4.55-6.356 6.62-4.523 3.848-9.539 6.805-14.957 8.766-4.89-2.996-7.008-8.285-5.094-13.02 7.457-2.07 12.88-8.394 12.88-15.827 0-9.133-8.192-16.532-18.22-16.532-10.066 0-18.253 7.434-18.253 16.57 0 4.513 2.035 8.653 5.297 11.61-.286.52-.57 1.035-.856 1.59C4.973 81.438 1.875 87.207.691 93.68c-2.363 12.941 1.508 23.336 10.84 29.215 5.258 3.293 11.047 4.957 17.282 4.957 10.714 0 21.597-4.883 32.109-9.618 7.5-3.363 15.242-6.879 22.863-8.578 2.813-.629 5.746-1 8.844-1.406 6.273-.813 12.754-1.664 18.582-4.734 6.805-3.586 11.45-9.579 12.797-16.457 1.015-5.29 0-10.614-2.61-15.274a15.35 15.35 0 002.73-8.765zm-7.945 0c0 5.14-4.606 9.32-10.27 9.32s-10.27-4.18-10.27-9.32c0-1.665.489-3.254 1.344-4.622.325-.52.735-1.035 1.14-1.48a8.517 8.517 0 011.427-1.219l.043-.039c.324-.222.691-.445 1.058-.664 0 0 .04 0 .04-.039.163-.074.327-.184.492-.258.039 0 .078-.039.12-.039.165-.07.368-.144.57-.219a8.78 8.78 0 00.571-.222c.04 0 .082-.04.121-.04.164-.034.328-.109.489-.144.043 0 .125-.039.164-.039.203-.035.367-.074.57-.11h.043l.61-.113c.042 0 .12 0 .163-.035.164 0 .325-.039.489-.039h.203c.203 0 .41-.035.652-.035h.531c.16 0 .286 0 .446.035h.082c.328.04.652.074.98.149 4.645.886 8.192 4.66 8.192 9.172zM52.527 7.508h64.102l-14.711 39.387c-.61.113-1.223.296-1.832.48l-15.484-28.66L69.074 47.19c-.613-.183-1.265-.296-1.914-.406zM81.664 59.8c-.773-3.477-2.73-6.582-5.5-8.875l8.438-15.457 8.515 15.789c-2.527 2.293-4.36 5.215-5.094 8.543zM61.25 53.96c.203-.04.367-.074.57-.113h.121c.164-.035.329-.035.489-.075h.164c.164 0 .285-.035.449-.035h1.59c.16 0 .285.035.406.035.082 0 .121 0 .203.04.164.035.285.035.45.074.038 0 .081 0 .163.035.204.039.407.074.57.113h.04c.164.035.328.07.488.145.043 0 .082.039.164.039.121.035.285.074.406.148.043 0 .082.035.125.035.16.075.325.114.489.188h.039c.203.07.367.144.531.258h.04c.163.074.327.183.491.257.04 0 .04.04.078.04.164.07.286.183.45.257l.043.035c.488.333.937.704 1.382 1.075l.043.035c.407.406.813.851 1.141 1.332 1.059 1.48 1.672 3.219 1.672 5.105 0 5.141-4.606 9.317-10.27 9.317s-10.27-4.176-10.27-9.317c-.042-4.328 3.259-7.988 7.743-9.023zm-40.102-.262c5.665 0 10.27 4.18 10.27 9.32 0 5.141-4.605 9.32-10.27 9.32-5.664 0-10.27-4.179-10.27-9.32 0-5.14 4.606-9.32 10.27-9.32zm94.79 32.067c-.895 4.73-4.118 8.875-8.844 11.351-4.442 2.332-9.903 3.07-15.649 3.809-3.136.406-6.437.851-9.617 1.554-8.476 1.887-16.625 5.586-24.531 9.133-10.106 4.551-19.645 8.84-28.484 8.84-4.606 0-8.723-1.183-12.633-3.66-8.965-5.621-8.52-16.16-7.457-21.93.976-5.402 3.707-10.468 6.316-15.312.16-.297.285-.555.445-.852.899.297 1.836.52 2.813.668-1.547 7.84 2.851 15.938 11.41 19.934l1.55.738 1.669-.555c7.133-2.293 13.734-6.027 19.562-11.02 3.301-2.812 6.114-5.843 8.477-9.136.937.149 1.875.188 2.812.188 8.477 0 15.606-5.29 17.645-12.391h6.844c2.039 7.137 9.171 12.39 17.648 12.39 3.383 0 6.52-.85 9.207-2.292 1.063 2.773 1.387 5.656.817 8.543zm0 0"/></symbol>
	<symbol id="HTML" xmlns="http://www.w3.org/2000/svg" viewBox="0 0 128 128"><path fill="#E44D26" d="M19.037 113.876L9.032 1.661h109.936l-10.016 112.198-45.019 12.48z"/><path fill="#F16529" d="M64 116.8l36.378-10.086 8.559-95.878H64z"/><path fill="#EBEBEB" d="M64 52.455H45.788L44.53 38.361H64V24.599H29.489l.33 3.692 3.382 37.927H64zm0 35.743l-.061.017-15.327-4.14-.979-10.975H33.816l1.928 21.609 28.193 7.826.063-.017z"/><path fill="#fff" d="M63.952 52.455v13.763h16.947l-1.597 17.849-15.35 4.143v14.319l28.215-7.82.207-2.325 3.234-36.233.335-3.696h-3.708zm0-27.856v13.762h33.244l.276-3.092.628-6.978.329-3.692z"/></symbol>
	<symbol id="Git" xmlns="http://www.w3.org/2000/svg" viewBox="0 0 128 128"><path fill="#F34F29" d="M124.737 58.378L69.621 3.264c-3.172-3.174-8.32-3.174-11.497 0L46.68 14.71l14.518 14.518c3.375-1.139 7.243-.375 9.932 2.314 2.703 2.706 3.461 6.607 2.294 9.993l13.992 13.993c3.385-1.167 7.292-.413 9.994 2.295 3.78 3.777 3.78 9.9 0 13.679a9.673 9.673 0 01-13.683 0 9.677 9.677 0 01-2.105-10.521L68.574 47.933l-.002 34.341a9.708 9.708 0 012.559 1.828c3.778 3.777 3.778 9.898 0 13.683-3.779 3.777-9.904 3.777-13.679 0-3.778-3.784-3.778-9.905 0-13.683a9.65 9.65 0 013.167-2.11V47.333a9.581 9.581 0 01-3.167-2.111c-2.862-2.86-3.551-7.06-2.083-10.576L41.056 20.333 3.264 58.123a8.133 8.133 0 000 11.5l55.117 55.114c3.174 3.174 8.32 3.174 11.499 0l54.858-54.858a8.135 8.135 0 00-.001-11.501z"/></symbol>
	<symbol id="Figma" xmlns="http://www.w3.org/2000/svg" viewBox="0 0 128 128"><path fill="#0acf83" d="M45.5 129c11.9 0 21.5-9.6 21.5-21.5V86H45.5C33.6 86 24 95.6 24 107.5S33.6 129 45.5 129zm0 0"/><path fill="#a259ff" d="M24 64.5C24 52.6 33.6 43 45.5 43H67v43H45.5C33.6 86 24 76.4 24 64.5zm0 0"/><path fill="#f24e1e" d="M24 21.5C24 9.6 33.6 0 45.5 0H67v43H45.5C33.6 43 24 33.4 24 21.5zm0 0"/><path fill="#ff7262" d="M67 0h21.5C100.4 0 110 9.6 110 21.5S100.4 43 88.5 43H67zm0 0"/><path fill="#1abcfe" d="M110 64.5c0 11.9-9.6 21.5-21.5 21.5S67 76.4 67 64.5 76.6 43 88.5 43 110 52.6 110 64.5zm0 0"/></symbol>
	<symbol id="Docker" xmlns="http://www.w3.org/2000/svg" viewBox="0 0 128 128"><path fill-rule="evenodd" clip-rule="evenodd" fill="#3A4D54" d="M73.8 50.8h11.3v11.5h5.7c2.6 0 5.3-.5 7.8-1.3 1.2-.4 2.6-1 3.8-1.7-1.6-2.1-2.4-4.7-2.6-7.3-.3-3.5.4-8.1 2.8-10.8l1.2-1.4 1.4 1.1c3.6 2.9 6.5 6.8 7.1 11.4 4.3-1.3 9.3-1 13.1 1.2l1.5.9-.8 1.6c-3.2 6.2-9.9 8.2-16.4 7.8-9.8 24.3-31 35.8-56.8 35.8-13.3 0-25.5-5-32.5-16.8l-.1-.2-1-2.1c-2.4-5.2-3.1-10.9-2.6-16.6l.2-1.7h9.6V50.8h11.3V39.6h22.5V28.3h13.5v22.5z"/><path fill="#00AADA" d="M110.4 55.1c.8-5.9-3.6-10.5-6.4-12.7-3.1 3.6-3.6 13.2 1.3 17.2-2.8 2.4-8.5 4.7-14.5 4.7H18.6c-.6 6.2.5 11.9 3 16.8l.8 1.5c.5.9 1.1 1.7 1.7 2.6 3 .2 5.7.3 8.2.2 4.9-.1 8.9-.7 12-1.7.5-.2.9.1 1.1.5.2.5-.1.9-.5 1.1-.4.1-.8.3-1.3.4-2.4.7-5 1.1-8.3 1.3h-.6c-1.3.1-2.7.1-4.2.1-1.6 0-3.1 0-4.9-.1 6 6.8 15.4 10.8 27.2 10.8 25 0 46.2-11.1 55.5-35.9 6.7.7 13.1-1 16-6.7-4.5-2.7-10.5-1.8-13.9-.1z"/><path fill="#28B8EB" d="M110.4 55.1c.8-5.9-3.6-10.5-6.4-12.7-3.1 3.6-3.6 13.2 1.3 17.2-2.8 2.4-8.5 4.7-14.5 4.7h-68c-.3 9.5 3.2 16.7 9.5 21 4.9-.1 8.9-.7 12-1.7.5-.2.9.1 1.1.5.2.5-.1.9-.5 1.1-.4.1-.8.3-1.3.4-2.4.7-5.2 1.2-8.5 1.4l-.1-.1c8.5 4.4 20.8 4.3 35-1.1 15.8-6.1 30.6-17.7 40.9-30.9-.2.1-.4.1-.5.2z"/><path fill="#028BB8" d="M18.7 71.8c.4 3.3 1.4 6.4 2.9 9.3l.8 1.5c.5.9 1.1 1.7 1.7 2.6 3 .2 5.7.3 8.2.2 4.9-.1 8.9-.7 12-1.7.5-.2.9.1 1.1.5.2.5-.1.9-.5 1.1-.4.1-.8.3-1.3.4-2.4.7-5.2 1.2-8.5 1.4h-.4c-1.3.1-2.7.1-4.1.1-1.6 0-3.2 0-4.9-.1 6 6.8 15.5 10.8 27.3 10.8 21.4 0 40-8.1 50.8-26H18.7v-.1z"/><path fill="#019BC6" d="M23.5 71.8c1.3 5.8 4.3 10.4 8.8 13.5 4.9-.1 8.9-.7 12-1.7.5-.2.9.1 1.1.5.2.5-.1.9-.5 1.1-.4.1-.8.3-1.3.4-2.4.7-5.2 1.2-8.6 1.4 8.5 4.4 20.8 4.3 34.9-1.1 8.5-3.3 16.8-8.2 24.2-14.1H23.5z"/><path fill-rule="evenodd" clip-rule="evenodd" fill="#00ACD3" d="M28.4 52.7h9.8v9.8h-9.8v-9.8zm.8.8h.8v8.1h-.8v-8.1zm1.4 0h.8v8.1h-.8v-8.1zm1.5 0h.8v8.1h-.8v-8.1zm1.5 0h.8v8.1h-.8v-8.1zm1.5 0h.8v8.1h-.8v-8.1zm1.5 0h.8v8.1h-.8v-8.1zm3-12h9.8v9.8h-9.8v-9.8zm.9.8h.8v8.1h-.8v-8.1zm1.4 0h.8v8.1h-.8v-8.1zm1.5 0h.8v8.1h-.8v-8.1zm1.5 0h.8v8.1h-.8v-8.1zm1.4 0h.8v8.1h-.8v-8.1zm1.5 0h.8v8.1h-.8v-8.1z"/><path fill-rule="evenodd" clip-rule="evenodd" fill="#23C2EE" d="M39.6 52.7h9.8v9.8h-9.8v-9.8zm.9.8h.8v8.1h-.8v-8.1zm1.4 0h.8v8.1h-.8v-8.1zm1.5 0h.8v8.1h-.8v-8.1zm1.5 0h.8v8.1h-.8v-8.1zm1.4 0h.8v8.1h-.8v-8.1zm1.5 0h.8v8.1h-.8v-8.1z"/><path fill-rule="evenodd" clip-rule="evenodd" fill="#00ACD3" d="M50.9 52.7h9.8v9.8h-9.8v-9.8zm.8.8h.8v8.1h-.8v-8.1zm1.5 0h.8v8.1h-.8v-8.1zm1.5 0h.8v8.1h-.8v-8.1zm1.4 0h.8v8.1h-.8v-8.1zm1.5 0h.8v8.1h-.8v-8.1zm1.5 0h.8v8.1h-.8v-8.1z"/><path fill-rule="evenodd" clip-rule="evenodd" fill="#23C2EE" d="M50.9 41.5h9.8v9.8h-9.8v-9.8zm.8.8h.8v8.1h-.8v-8.1zm1.5 0h.8v8.1h-.8v-8.1zm1.5 0h.8v8.1h-.8v-8.1zm1.4 0h.8v8.1h-.8v-8.1zm1.5 0h.8v8.1h-.8v-8.1zm1.5 0h.8v8.1h-.8v-8.1zm3.1 10.4H72v9.8h-9.8v-9.8zm.8.8h.8v8.1H63v-8.1zm1.5 0h.8v8.1h-.8v-8.1zm1.4 0h.8v8.1h-.8v-8.1zm1.5 0h.8v8.1h-.8v-8.1zm1.5 0h.8v8.1h-.8v-8.1zm1.5 0h.8v8.1h-.8v-8.1z"/><path fill-rule="evenodd" clip-rule="evenodd" fill="#00ACD3" d="M62.2 41.5H72v9.8h-9.8v-9.8zm.8.8h.8v8.1H63v-8.1zm1.5 0h.8v8.1h-.8v-8.1zm1.4 0h.8v8.1h-.8v-8.1zm1.5 0h.8v8.1h-.8v-8.1zm1.5 0h.8v8.1h-.8v-8.1zm1.5 0h.8v8.1h-.8v-8.1z"/><path fill-rule="evenodd" clip-rule="evenodd" fill="#23C2EE" d="M62.2 30.2H72V40h-9.8v-9.8zm.8.8h.8v8.1H63V31zm1.5 0h.8v8.1h-.8V31zm1.4 0h.8v8.1h-.8V31zm1.5 0h.8v8.1h-.8V31zm1.5 0h.8v8.1h-.8V31zm1.5 0h.8v8.1h-.8V31z"/><path fill-rule="evenodd" clip-rule="evenodd" fill="#00ACD3" d="M73.5 52.7h9.8v9.8h-9.8v-9.8zm.8.8h.8v8.1h-.8v-8.1zm1.4 0h.8v8.1h-.8v-8.1zm1.5 0h.8v8.1h-.8v-8.1zm1.5 0h.8v8.1h-.8v-8.1zm1.5 0h.8v8.1h-.8v-8.1zm1.5 0h.8v8.1h-.8v-8.1z"/><path fill-rule="evenodd" clip-rule="evenodd" fill="#D4EEF1" d="M48.8 78.3c1.5 0 2.7 1.2 2.7 2.7 0 1.5-1.2 2.7-2.7 2.7-1.5 0-2.7-1.2-2.7-2.7 0-1.5 1.2-2.7 2.7-2.7"/><path fill-rule="evenodd" clip-rule="evenodd" fill="#3A4D54" d="M48.8 79.1c.2 0 .5 0 .7.1-.2.1-.4.4-.4.7 0 .4.4.8.8.8.3 0 .6-.2.7-.4.1.2.1.5.1.7 0 1.1-.9 1.9-1.9 1.9-1.1 0-1.9-.9-1.9-1.9 0-1 .8-1.9 1.9-1.9M1.1 72.8h125.4c-2.7-.7-8.6-1.6-7.7-5.2-5 5.7-16.9 4-20 1.2-3.4 4.9-23 3-24.3-.8-4.2 5-17.3 5-21.5 0-1.4 3.8-21 5.7-24.3.8-3 2.8-15 4.5-20-1.2 1.1 3.5-4.9 4.5-7.6 5.2"/><path fill="#BFDBE0" d="M56 97.8c-6.7-3.2-10.3-7.5-12.4-12.2-2.5.7-5.5 1.2-8.9 1.4-1.3.1-2.7.1-4.1.1-1.7 0-3.4 0-5.2-.1 6 6 13.6 10.7 27.5 10.8H56z"/><path fill="#D4EEF1" d="M46.1 89.9c-.9-1.3-1.8-2.8-2.5-4.3-2.5.7-5.5 1.2-8.9 1.4 2.3 1.2 5.7 2.4 11.4 2.9z"/></symbol>
	<symbol id="CSS" xmlns="http://www.w3.org/2000/svg" viewBox="0 0 128 128"><path fill="#1572B6" d="M18.814 114.123L8.76 1.352h110.48l-10.064 112.754-45.243 12.543-45.119-12.526z"/><path fill="#33A9DC" d="M64.001 117.062l36.559-10.136 8.601-96.354h-45.16v106.49z"/><path fill="#fff" d="M64.001 51.429h18.302l1.264-14.163H64.001V23.435h34.682l-.332 3.711-3.4 38.114h-30.95V51.429z"/><path fill="#EBEBEB" d="M64.083 87.349l-.061.018-15.403-4.159-.985-11.031H33.752l1.937 21.717 28.331 7.863.063-.018v-14.39z"/><path fill="#fff" d="M81.127 64.675l-1.666 18.522-15.426 4.164v14.39l28.354-7.858.208-2.337 2.406-26.881H81.127z"/><path fill="#EBEBEB" d="M64.048 23.435v13.831H30.64l-.277-3.108-.63-7.012-.331-3.711h34.646zm-.047 27.996v13.831H48.792l-.277-3.108-.631-7.012-.33-3.711h16.447z"/></symbol>
	<symbol id="Python" viewBox="0 0 128 128" fill="none" xmlns="http://www.w3.org/2000/svg"><path d="M63.3912 12.2508C59.1692 12.2708 55.1392 12.6298 51.5912 13.2578C41.1412 15.1038 39.2452 18.9678 39.2452 26.0948V35.5058H63.9382V38.6428H29.9772C22.8012 38.6428 16.5172 42.9558 14.5512 51.1638C12.2832 60.5688 12.1832 66.4388 14.5512 76.2598C16.3062 83.5708 20.4982 88.7788 27.6752 88.7788H36.1662V77.4968C36.1662 69.3458 43.2172 62.1568 51.5922 62.1568H76.2572C83.1232 62.1568 88.6032 56.5028 88.6032 49.6088V26.0958C88.6032 19.4028 82.9572 14.3758 76.2572 13.2588C72.0132 12.5528 67.6122 12.2318 63.3912 12.2508ZM50.0372 19.8198C52.5872 19.8198 54.6712 21.9368 54.6712 24.5408C54.6712 27.1338 52.5882 29.2308 50.0372 29.2308C47.4772 29.2308 45.4042 27.1338 45.4042 24.5408C45.4032 21.9368 47.4772 19.8198 50.0372 19.8198Z" fill="#028BB8"/><path d="M91.6831 38.6416V49.6076C91.6831 58.1076 84.4751 65.2626 76.2571 65.2626H51.5921C44.8361 65.2626 39.2461 71.0456 39.2461 77.8116V101.327C39.2461 108.018 45.0641 111.955 51.5921 113.874C59.4081 116.171 66.9041 116.587 76.2571 113.874C82.4731 112.073 88.6031 108.451 88.6031 101.327V91.9146H63.9391V88.7766H100.951C108.127 88.7766 110.803 83.7716 113.299 76.2576C115.877 68.5226 115.766 61.0836 113.299 51.1616C111.525 44.0166 108.138 38.6406 100.951 38.6406L91.6831 38.6416ZM77.8101 98.1886C80.3711 98.1886 82.4441 100.286 82.4441 102.881C82.4441 105.483 80.3701 107.6 77.8101 107.6C75.2601 107.6 73.1771 105.483 73.1771 102.881C73.1771 100.286 75.2601 98.1886 77.8101 98.1886Z" fill="#FFD43B"/></symbol>
	<symbol id="SQlite" viewBox="0 0 128 128" xmlns="http://www.w3.org/2000/svg"><defs><linearGradient id="sqlite-original-a" x1="-15.615" x2="-6.741" y1="-9.108" y2="-9.108" gradientTransform="rotate(90 -90.486 64.634) scale(9.2712)" gradientUnits="userSpaceOnUse"><stop stop-color="#95d7f4" offset="0"/><stop stop-color="#0f7fcc" offset=".92"/><stop stop-color="#0f7fcc" offset="1"/></linearGradient></defs><path d="M69.5 99.176c-.059-.73-.094-1.2-.094-1.2S67.2 83.087 64.57 78.642c-.414-.707.043-3.594 1.207-7.88.68 1.169 3.54 6.192 4.118 7.81.648 1.824.78 2.347.78 2.347s-1.57-8.082-4.144-12.797a162.286 162.286 0 012.004-6.265c.973 1.71 3.313 5.859 3.828 7.3.102.293.192.543.27.774.023-.137.05-.274.074-.414-.59-2.504-1.75-6.86-3.336-10.082 3.52-18.328 15.531-42.824 27.84-53.754H16.9c-5.387 0-9.789 4.406-9.789 9.789v88.57c0 5.383 4.406 9.789 9.79 9.789h52.897a118.657 118.657 0 01-.297-14.652" fill="#0b7fcc"/><path d="M65.777 70.762c.68 1.168 3.54 6.188 4.117 7.809.649 1.824.781 2.347.781 2.347s-1.57-8.082-4.144-12.797a164.535 164.535 0 012.004-6.27c.887 1.567 2.922 5.169 3.652 6.872l.082-.961c-.648-2.496-1.633-5.766-2.898-8.328 3.242-16.871 13.68-38.97 24.926-50.898H16.899a6.94 6.94 0 00-6.934 6.933v82.11c17.527-6.731 38.664-12.88 56.855-12.614-.672-2.605-1.441-4.96-2.25-6.324-.414-.707.043-3.597 1.207-7.879" fill="url(#sqlite-original-a)"/><path d="M115.95 2.781c-5.5-4.906-12.164-2.933-18.734 2.899a44.347 44.347 0 00-2.914 2.859c-11.25 11.926-21.684 34.023-24.926 50.895 1.262 2.563 2.25 5.832 2.894 8.328.168.64.32 1.242.442 1.754.285 1.207.437 1.996.437 1.996s-.101-.383-.515-1.582c-.078-.23-.168-.484-.27-.773-.043-.125-.105-.274-.172-.434-.734-1.703-2.765-5.305-3.656-6.867-.762 2.25-1.437 4.36-2.004 6.265 2.578 4.715 4.149 12.797 4.149 12.797s-.137-.523-.782-2.347c-.578-1.621-3.441-6.64-4.117-7.809-1.164 4.281-1.625 7.172-1.207 7.88.809 1.362 1.574 3.722 2.25 6.323 1.524 5.867 2.586 13.012 2.586 13.012s.031.469.094 1.2a118.653 118.653 0 00.297 14.651c.504 6.11 1.453 11.363 2.664 14.172l.828-.449c-1.781-5.535-2.504-12.793-2.188-21.156.48-12.793 3.422-28.215 8.856-44.289 9.191-24.27 21.938-43.738 33.602-53.035-10.633 9.602-25.023 40.684-29.332 52.195-4.82 12.891-8.238 24.984-10.301 36.574 3.55-10.863 15.047-15.53 15.047-15.53s5.637-6.958 12.227-16.888c-3.95.903-10.43 2.442-12.598 3.352-3.2 1.344-4.067 1.8-4.067 1.8s10.371-6.312 19.27-9.171c12.234-19.27 25.562-46.648 12.141-58.621" fill="#003956"/></symbol>
	<symbol id="TailwindCSS" xmlns="http://www.w3.org/2000/svg" viewBox="0 0 128 128"><path d="M64.004 25.602c-17.067 0-27.73 8.53-32 25.597 6.398-8.531 13.867-11.73 22.398-9.597 4.871 1.214 8.352 4.746 12.207 8.66C72.883 56.629 80.145 64 96.004 64c17.066 0 27.73-8.531 32-25.602-6.399 8.536-13.867 11.735-22.399 9.602-4.87-1.215-8.347-4.746-12.207-8.66-6.27-6.367-13.53-13.738-29.394-13.738zM32.004 64c-17.066 0-27.73 8.531-32 25.602C6.402 81.066 13.87 77.867 22.402 80c4.871 1.215 8.352 4.746 12.207 8.66 6.274 6.367 13.536 13.738 29.395 13.738 17.066 0 27.73-8.53 32-25.597-6.399 8.531-13.867 11.73-22.399 9.597-4.87-1.214-8.347-4.746-12.207-8.66C55.128 71.371 47.868 64 32.004 64zm0 0" fill="#38b2ac"/></symbol>
	<symbol id="TypeScript" xmlns="http://www.w3.org/2000/svg" viewBox="0 0 128 128"><path fill="#fff" d="M22.67 47h99.67v73.67H22.67z"/><path data-name="original" fill="#007acc" d="M1.5 63.91v62.5h125v-125H1.5zm100.73-5a15.56 15.56 0 017.82 4.5 20.58 20.58 0 013 4c0 .16-5.4 3.81-8.69 5.85-.12.08-.6-.44-1.13-1.23a7.09 7.09 0 00-5.87-3.53c-3.79-.26-6.23 1.73-6.21 5a4.58 4.58 0 00.54 2.34c.83 1.73 2.38 2.76 7.24 4.86 8.95 3.85 12.78 6.39 15.16 10 2.66 4 3.25 10.46 1.45 15.24-2 5.2-6.9 8.73-13.83 9.9a38.32 38.32 0 01-9.52-.1 23 23 0 01-12.72-6.63c-1.15-1.27-3.39-4.58-3.25-4.82a9.34 9.34 0 011.15-.73L82 101l3.59-2.08.75 1.11a16.78 16.78 0 004.74 4.54c4 2.1 9.46 1.81 12.16-.62a5.43 5.43 0 00.69-6.92c-1-1.39-3-2.56-8.59-5-6.45-2.78-9.23-4.5-11.77-7.24a16.48 16.48 0 01-3.43-6.25 25 25 0 01-.22-8c1.33-6.23 6-10.58 12.82-11.87a31.66 31.66 0 019.49.26zm-29.34 5.24v5.12H56.66v46.23H45.15V69.26H28.88v-5a49.19 49.19 0 01.12-5.17C29.08 59 39 59 51 59h21.83z"/></symbol>
	<symbol id="Django" version="1.0" viewBox="0 0 128 128" xmlns="http://www.w3.org/2000/svg" fill="#092e20"><path d="M59.448 0h20.93v96.88c-10.737 2.04-18.62 2.855-27.181 2.855-25.551-.001-38.87-11.551-38.87-33.705 0-21.338 14.135-35.2 36.015-35.2 3.398 0 5.98.272 9.106 1.087zm0 48.765c-2.446-.815-4.485-1.086-7.067-1.086-10.6 0-16.717 6.523-16.717 17.939 0 11.145 5.845 17.26 16.582 17.26 2.309 0 4.212-.136 7.202-.542z"/><path d="M113.672 32.321V80.84c0 16.717-1.224 24.735-4.893 31.666-3.398 6.661-7.883 10.873-17.124 15.494l-19.435-9.241c9.242-4.35 13.726-8.153 16.58-14 2.99-5.979 3.943-12.91 3.943-31.122V32.321zM92.742.111h20.93v21.474h-20.93z"/></symbol>
	<symbol id="React" xmlns="http://www.w3.org/2000/svg" viewBox="0 0 128 128"><g fill="#61DAFB"><circle cx="64" cy="64" r="11.4"/><path d="M107.3 45.2c-2.2-.8-4.5-1.6-6.9-2.3.6-2.4 1.1-4.8 1.5-7.1 2.1-13.2-.2-22.5-6.6-26.1-1.9-1.1-4-1.6-6.4-1.6-7 0-15.9 5.2-24.9 13.9-9-8.7-17.9-13.9-24.9-13.9-2.4 0-4.5.5-6.4 1.6-6.4 3.7-8.7 13-6.6 26.1.4 2.3.9 4.7 1.5 7.1-2.4.7-4.7 1.4-6.9 2.3C8.2 50 1.4 56.6 1.4 64s6.9 14 19.3 18.8c2.2.8 4.5 1.6 6.9 2.3-.6 2.4-1.1 4.8-1.5 7.1-2.1 13.2.2 22.5 6.6 26.1 1.9 1.1 4 1.6 6.4 1.6 7.1 0 16-5.2 24.9-13.9 9 8.7 17.9 13.9 24.9 13.9 2.4 0 4.5-.5 6.4-1.6 6.4-3.7 8.7-13 6.6-26.1-.4-2.3-.9-4.7-1.5-7.1 2.4-.7 4.7-1.4 6.9-2.3 12.5-4.8 19.3-11.4 19.3-18.8s-6.8-14-19.3-18.8zM92.5 14.7c4.1 2.4 5.5 9.8 3.8 20.3-.3 2.1-.8 4.3-1.4 6.6-5.2-1.2-10.7-2-16.5-2.5-3.4-4.8-6.9-9.1-10.4-13 7.4-7.3 14.9-12.3 21-12.3 1.3 0 2.5.3 3.5.9zM81.3 74c-1.8 3.2-3.9 6.4-6.1 9.6-3.7.3-7.4.4-11.2.4-3.9 0-7.6-.1-11.2-.4-2.2-3.2-4.2-6.4-6-9.6-1.9-3.3-3.7-6.7-5.3-10 1.6-3.3 3.4-6.7 5.3-10 1.8-3.2 3.9-6.4 6.1-9.6 3.7-.3 7.4-.4 11.2-.4 3.9 0 7.6.1 11.2.4 2.2 3.2 4.2 6.4 6 9.6 1.9 3.3 3.7 6.7 5.3 10-1.7 3.3-3.4 6.6-5.3 10zm8.3-3.3c1.5 3.5 2.7 6.9 3.8 10.3-3.4.8-7 1.4-10.8 1.9 1.2-1.9 2.5-3.9 3.6-6 1.2-2.1 2.3-4.2 3.4-6.2zM64 97.8c-2.4-2.6-4.7-5.4-6.9-8.3 2.3.1 4.6.2 6.9.2 2.3 0 4.6-.1 6.9-.2-2.2 2.9-4.5 5.7-6.9 8.3zm-18.6-15c-3.8-.5-7.4-1.1-10.8-1.9 1.1-3.3 2.3-6.8 3.8-10.3 1.1 2 2.2 4.1 3.4 6.1 1.2 2.2 2.4 4.1 3.6 6.1zm-7-25.5c-1.5-3.5-2.7-6.9-3.8-10.3 3.4-.8 7-1.4 10.8-1.9-1.2 1.9-2.5 3.9-3.6 6-1.2 2.1-2.3 4.2-3.4 6.2zM64 30.2c2.4 2.6 4.7 5.4 6.9 8.3-2.3-.1-4.6-.2-6.9-.2-2.3 0-4.6.1-6.9.2 2.2-2.9 4.5-5.7 6.9-8.3zm22.2 21l-3.6-6c3.8.5 7.4 1.1 10.8 1.9-1.1 3.3-2.3 6.8-3.8 10.3-1.1-2.1-2.2-4.2-3.4-6.2zM31.7 35c-1.7-10.5-.3-17.9 3.8-20.3 1-.6 2.2-.9 3.5-.9 6 0 13.5 4.9 21 12.3-3.5 3.8-7 8.2-10.4 13-5.8.5-11.3 1.4-16.5 2.5-.6-2.3-1-4.5-1.4-6.6zM7 64c0-4.7 5.7-9.7 15.7-13.4 2-.8 4.2-1.5 6.4-2.1 1.6 5 3.6 10.3 6 15.6-2.4 5.3-4.5 10.5-6 15.5C15.3 75.6 7 69.6 7 64zm28.5 49.3c-4.1-2.4-5.5-9.8-3.8-20.3.3-2.1.8-4.3 1.4-6.6 5.2 1.2 10.7 2 16.5 2.5 3.4 4.8 6.9 9.1 10.4 13-7.4 7.3-14.9 12.3-21 12.3-1.3 0-2.5-.3-3.5-.9zM96.3 93c1.7 10.5.3 17.9-3.8 20.3-1 .6-2.2.9-3.5.9-6 0-13.5-4.9-21-12.3 3.5-3.8 7-8.2 10.4-13 5.8-.5 11.3-1.4 16.5-2.5.6 2.3 1 4.5 1.4 6.6zm9-15.6c-2 .8-4.2 1.5-6.4 2.1-1.6-5-3.6-10.3-6-15.6 2.4-5.3 4.5-10.5 6-15.5 13.8 4 22.1 10 22.1 15.6 0 4.7-5.8 9.7-15.7 13.4z"/></g></symbol>
	<symbol id="Styled Components" viewBox="0 0 128 128" fill="none" xmlns="http://www.w3.org/2000/svg"><g clip-path="url(#clip0_636_326)"><path d="M76.9776 87.9835C83.071 83.0059 92.0445 83.904 97.0306 89.9904V89.9904C102.032 96.0959 101.123 105.103 95.0028 110.086L73 128L27.9977 127.994L76.9776 87.9835Z" fill="#D5AD41"/><path d="M64.6615 63.5457C70.7723 58.5797 79.7482 59.4895 84.7382 65.5807V65.5807C89.7457 71.6932 88.8452 80.7087 82.7277 85.71L31 128L-0.49988 116.5L64.6615 63.5457Z" fill="#D5AD41"/><path d="M39.7412 54.2314C45.3801 49.5818 53.7234 50.3975 58.355 56.0512V56.0512C63.0263 61.7534 62.1242 70.1759 56.3512 74.7594L-4.68492e-08 119.5L2.58887e-06 87L39.7412 54.2314Z" fill="#D5AD41"/><rect x="114.297" y="13.5938" width="7.24884" height="49.7653" transform="rotate(14.5742 114.297 13.5938)" fill="#AC5A9A"/><path d="M105.499 -0.00734304L127.999 -0.00417428L127.999 25.0032L108.272 21.8606C105.027 21.3437 102.801 18.3123 103.28 15.0612L105.498 -0.00417326L105.499 -0.00734304Z" fill="#AC5A9A"/><path d="M42.9782 51.3342C42.9782 51.3342 48.7389 46.9228 53.9801 51.3287C62.5027 58.4931 55.9785 65.8292 55.9785 65.8292L-0.0209502 119.332L-0.0209452 86.8322L42.9782 51.3342Z" fill="#FFCF47"/><path d="M67.9964 61.4972C67.9964 61.4972 76.233 54.7993 82.4968 62.5025C89 70.5 82.9976 76.9983 82.9976 76.9983L28.4983 128L-0.00154764 128L-0.00154843 117.001L67.9964 61.4972Z" fill="#FFCF47"/><path d="M79.9993 85.4964C79.9993 85.4964 88.773 79.3435 95.0036 87.4976C101.498 95.9967 95.0036 103.498 95.0036 103.498L68.9994 127.996L28.0001 128L79.9993 85.4964Z" fill="#FFCF47"/><path d="M85.9044 47.9778C88.158 46.2221 91.3674 46.4238 93.3834 48.4479V48.4479C93.6916 48.7573 93.9628 49.1014 94.1918 49.4733L94.3891 49.7938C96.4413 53.1269 96.0719 57.4099 93.4795 60.3424L84.5 70.5L77.3833 77.9913C75.8413 79.6145 73.789 80.6595 71.5693 80.9519V80.9519C69.0264 81.2869 66.4537 80.6096 64.4054 79.0661L63.8245 78.6284C62.018 77.2671 60.8353 75.236 60.5429 72.993V72.993C60.1575 70.0362 61.3649 67.0962 63.717 65.2636L85.9044 47.9778Z" fill="#C465B0"/><path d="M58.9738 39.247C61.2338 37.4975 64.4428 37.7042 66.4596 39.7292V39.7292C66.7687 40.0395 67.0407 40.3845 67.2703 40.7574L67.4226 41.0048C69.4586 44.3116 68.8844 48.5948 66.0494 51.2487L56.5 60.1878L49.7703 66.8273C45.8511 70.6939 39.4679 70.3992 35.9216 66.1878V66.1878V66.1878C33.6682 62.8076 34.4114 58.2605 37.6239 55.7737L58.9738 39.247Z" fill="#C465B0"/><path d="M97.3966 72.1419C99.6502 70.3862 102.86 70.5879 104.876 72.612V72.612C105.184 72.9214 105.455 73.2655 105.684 73.6374L105.896 73.9822C107.952 77.321 107.648 81.5992 105.14 84.6135L96.5 95L88.6947 102.908C86.9705 104.655 84.6184 105.639 82.1639 105.639V105.639C80.1714 105.639 78.233 104.99 76.6417 103.791L75.3167 102.792C73.5102 101.431 72.3274 99.4001 72.0351 97.157V97.157C71.6497 94.2003 72.8571 91.2602 75.2092 89.4277L97.3966 72.1419Z" fill="#C465B0"/><path d="M105.519 57.4324C106.554 56.7962 107.846 57.3331 108.125 58.5154C108.822 61.4622 109.674 66.747 108.07 70.6065C106.467 74.4659 102.12 77.5904 99.5405 79.176C98.5055 79.8122 97.2133 79.2753 96.934 78.093C96.2377 75.1462 95.3853 69.8614 96.9889 66.0019C98.5926 62.1425 102.939 59.018 105.519 57.4324Z" fill="#9B578C"/></g><defs><clipPath id="clip0_636_326"><rect width="128" height="128" fill="white"/></clipPath></defs></symbol>
	<symbol id="Sass" viewBox="0 0 128 128" fill="none" xmlns="http://www.w3.org/2000/svg"><path fill-rule="evenodd" clip-rule="evenodd" d="M1.21899 56.156C1.21899 56.859 1.42599 57.323 1.54199 57.774C2.29799 60.707 3.92299 63.224 5.85099 65.52C8.59699 68.792 11.96 71.426 15.405 73.903C18.393 76.051 21.442 78.151 24.442 80.283C24.957 80.649 25.444 81.07 26.003 81.519C25.522 81.779 25.122 82.008 24.706 82.219C20.747 84.227 16.938 86.478 13.427 89.205C11.311 90.849 9.26499 92.596 7.81999 94.879C5.49499 98.551 4.67199 102.463 6.40499 106.64C6.91099 107.86 7.68299 108.914 8.77199 109.693C9.12499 109.945 9.52099 110.195 9.93399 110.293C10.992 110.542 12.07 110.705 13.141 110.902L16.174 110.9C19.528 110.601 22.581 109.452 25.34 107.548C29.652 104.572 32.557 100.582 33.806 95.461C34.714 91.739 34.751 88.013 33.681 84.308C33.5786 83.9648 33.4605 83.6264 33.327 83.294C33.197 82.961 33.044 82.637 32.864 82.222L39.74 78.268L39.843 78.356C39.718 78.765 39.585 79.173 39.472 79.586C38.655 82.57 38.112 85.606 38.307 88.703C38.515 92.003 39.436 95.092 41.368 97.849C42.93 100.079 46.652 100.162 48.312 97.924C48.901 97.129 49.472 96.298 49.901 95.411C51.022 93.096 52.06 90.74 53.131 88.4L53.318 87.972C53.241 89.08 53.151 90.053 53.11 91.027C53.046 92.548 53.135 94.06 53.655 95.507C54.1 96.745 54.857 97.67 56.275 97.833C57.245 97.944 58.018 97.5 58.731 96.937C59.8356 96.0641 60.7511 94.9757 61.422 93.738C63.323 90.247 65.275 86.777 66.998 83.198C68.862 79.327 70.492 75.343 72.223 71.406L72.509 70.708C72.918 72.315 73.203 73.889 73.728 75.379C74.338 77.108 75.093 78.796 75.915 80.437C76.304 81.212 76.259 81.715 75.72 82.365C73.464 85.085 71.247 87.838 69.028 90.588C68.537 91.195 68.048 91.813 67.639 92.476C67.3909 92.8947 67.2277 93.3582 67.159 93.84C67.0902 94.2836 67.1957 94.7366 67.4536 95.104C67.7114 95.4715 68.1015 95.7248 68.542 95.811C69.4311 96.0025 70.3427 96.0674 71.25 96.004C74.347 95.776 77.159 94.689 79.645 92.847C82.866 90.461 83.9 87.205 83.12 83.346C82.909 82.299 82.536 81.281 82.173 80.272C82.01 79.817 81.999 79.498 82.296 79.074C84.871 75.397 87.071 71.496 89.117 67.505C89.198 67.348 89.281 67.191 89.423 67.023C90.086 70.473 91.084 73.798 92.872 76.815C91.96 77.694 91.057 78.491 90.24 79.369C88.441 81.303 86.881 83.403 86.067 85.964C85.717 87.068 85.448 88.19 85.604 89.369C85.846 91.2 87.346 92.39 89.147 91.973C93.001 91.081 96.328 89.265 98.759 86.048C100.395 83.882 100.544 81.466 99.859 78.935C99.671 78.247 99.448 77.57 99.208 76.781C100.159 76.486 101.086 76.132 102.045 75.913C107.024 74.777 111.949 74.975 116.747 76.773C119.548 77.823 121.811 79.58 123.153 82.344C124.792 85.723 123.886 88.929 120.701 91.065C120.404 91.264 120.064 91.421 119.818 91.67C119.739 91.7613 119.68 91.8681 119.645 91.9834C119.61 92.0988 119.599 92.2202 119.613 92.34C119.634 92.463 119.959 92.617 120.146 92.615C121.193 92.607 122.042 92.058 122.857 91.494C124.899 90.081 126.389 88.18 126.71 85.677L126.773 85.489L126.696 83.859C126.665 83.765 126.719 83.672 126.712 83.601C126.278 79.956 124.331 77.129 121.499 74.913C118.219 72.348 114.346 71.292 110.25 71.125C106.928 70.982 103.61 71.4927 100.485 72.628C99.588 72.953 98.699 73.338 97.797 73.701C97.676 73.482 97.546 73.272 97.439 73.055C96.513 71.159 95.391 69.347 95.143 67.173C94.967 65.629 94.751 64.087 95.118 62.56C95.471 61.091 95.931 59.647 96.364 58.198C96.587 57.452 96.43 57.034 95.718 56.698C95.4699 56.5743 95.2051 56.4874 94.932 56.44C93.182 56.186 91.456 56.331 89.761 56.824C89.161 56.999 88.725 57.335 88.592 57.999C88.516 58.38 88.361 58.745 88.253 59.121C87.81 60.684 87.496 62.277 86.78 63.766C84.986 67.501 82.938 71.095 80.842 74.663C80.615 75.048 80.376 75.426 80.09 75.893C79.354 74.353 78.569 72.971 78.331 71.351C78.062 69.519 77.85 67.69 78.306 65.872C78.645 64.516 79.088 63.185 79.496 61.847C79.689 61.211 79.6 60.877 79.024 60.542C78.733 60.373 78.404 60.223 78.076 60.174C76.2816 59.9007 74.4481 60.0507 72.722 60.612C72.179 60.788 71.894 61.139 71.728 61.699C71.24 63.351 70.824 65.043 70.139 66.614C67.365 72.974 64.511 79.301 61.66 85.627C61.065 86.948 60.368 88.223 59.697 89.509C59.527 89.835 59.279 90.122 59.067 90.428C58.897 90.227 58.831 90.089 58.832 89.951C58.837 89.138 58.74 88.301 58.895 87.515C59.371 85.1378 59.8971 82.771 60.473 80.416C60.943 78.47 61.49 76.542 62.011 74.609C62.186 73.962 62.189 73.357 61.724 72.813C60.943 71.902 59.311 71.702 58.343 72.404L57.915 72.646L57.998 71.956C58.202 70.477 58.243 69.003 57.837 67.546C57.331 65.73 56.035 64.685 54.151 64.743C53.273 64.77 52.351 64.92 51.538 65.24C48.119 66.58 45.49 68.953 43.252 71.808C43.0445 72.0731 42.7874 72.2952 42.495 72.462C39.602 74.066 36.7 75.65 33.799 77.24L30.57 79.009C29.704 78.183 28.917 77.326 28.024 76.599C25.297 74.375 22.526 72.206 19.78 70.007C17.346 68.058 14.988 66.028 13.184 63.447C11.842 61.527 10.977 59.426 10.894 57.052C10.789 54.027 11.647 51.263 13.187 48.69C15.157 45.398 17.844 42.756 20.798 40.363C23.923 37.833 27.303 35.685 30.806 33.724C35.707 30.981 40.748 28.553 46.153 26.95C51.695 25.306 57.318 24.365 63.118 25.021C65.398 25.279 67.612 25.801 69.645 26.916C71.202 27.769 72.479 28.886 73.073 30.632C73.659 32.35 73.641 34.091 73.235 35.836C72.41 39.37 70.475 42.283 68.04 44.886C64.046 49.153 59.174 52.058 53.689 53.977C50.5353 55.0818 47.254 55.7817 43.924 56.06C41.195 56.289 38.523 56.047 35.939 55.098C34.228 54.469 32.738 53.507 31.54 52.111C31.326 51.861 31.052 51.59 30.653 51.824C30.262 52.054 30.193 52.426 30.324 52.803C30.543 53.429 30.745 54.081 31.086 54.641C31.943 56.046 33.193 57.065 34.569 57.939C37.212 59.62 40.166 60.185 43.229 60.316C47.877 60.517 52.412 59.823 56.883 58.576C63.266 56.796 68.816 53.652 73.267 48.692C76.973 44.562 79.62 39.901 80.187 34.273C80.464 31.526 80.169 28.835 78.883 26.329C77.488 23.614 75.27 21.595 72.618 20.204C68.756 18.179 64.588 17 60.286 17H55.976C50.766 17 45.729 18.493 40.833 20.274C37.127 21.623 33.493 23.215 29.965 24.977C22.282 28.816 15.127 33.445 9.24999 39.81C6.32199 42.981 3.84299 46.48 2.41699 50.6C1.9866 51.8301 1.61583 53.0802 1.30599 54.346M29.145 90.359C28.812 94.818 26.791 98.433 23.488 101.361C21.63 103.007 19.499 104.179 17.017 104.591C16.117 104.74 15.196 104.776 14.323 104.403C13.078 103.871 12.799 102.766 12.775 101.589C12.738 99.713 13.395 98.017 14.296 96.403C15.472 94.299 17.196 92.695 19.037 91.197C21.937 88.836 25.083 86.838 28.305 84.952L28.548 84.852C29.046 86.692 29.283 88.509 29.145 90.359ZM54.303 70.98C54.068 72.404 53.774 73.829 53.358 75.209C51.92 79.986 50.073 84.615 48.076 89.182C47.707 90.027 47.17 90.798 46.703 91.599C46.6235 91.7221 46.5284 91.8344 46.42 91.933C45.842 92.504 45.294 92.474 45.002 91.727C44.662 90.859 44.453 89.93 44.273 89.011C44.152 88.394 44.181 87.746 44.143 87.114C44.182 82.62 45.553 78.536 47.879 74.734C48.838 73.166 49.882 71.672 51.477 70.68C51.9732 70.3715 52.51 70.1339 53.072 69.974C53.922 69.735 54.444 70.128 54.303 70.98ZM71.467 92.848L77.636 85.645C77.893 88.32 73.346 93.66 71.467 92.848ZM91.17 88.001C90.734 88.251 90.259 88.431 89.812 88.662C89.403 88.874 89.268 88.66 89.256 88.308C89.25 88.0643 89.2813 87.8212 89.349 87.587C90.182 84.649 91.715 82.141 93.996 80.101L94.156 80.019C95.241 83.054 93.987 86.387 91.17 88.001Z" fill="#CB6699"/></symbol>
	<symbol id="Vtex" viewBox="0 0 128 109" fill="none" xmlns="http://www.w3.org/2000/svg"><path d="M118.414 0H22.8328C15.4214 0 10.6756 7.84366 14.1436 14.3644L23.7043 32.3872H6.37187C5.27422 32.3875 4.19527 32.6702 3.2395 33.2074C2.28374 33.7449 1.48357 34.5186 0.916496 35.4543C0.349421 36.3899 0.03466 37.4555 0.0027025 38.5478C-0.0292549 39.6398 0.222671 40.722 0.734082 41.6888L31.4862 99.6321C32.0285 100.651 32.8391 101.504 33.8317 102.099C34.8241 102.693 35.9606 103.008 37.1189 103.008C38.2772 103.008 39.4137 102.693 40.4061 102.099C41.3987 101.504 42.2096 100.651 42.7516 99.6321L51.1036 83.9804L61.5817 103.728C65.2694 110.674 75.2595 110.687 78.9601 103.749L126.868 14.0005C130.255 7.65285 125.634 0 118.414 0ZM75.4793 38.3457L54.8218 77.0528C54.461 77.7303 53.9212 78.2973 53.2609 78.6929C52.6007 79.0882 51.8447 79.297 51.074 79.297C50.3035 79.297 49.5476 79.0882 48.8873 78.6929C48.2268 78.2973 47.6873 77.7303 47.3262 77.0528L26.8683 38.5086C26.5264 37.8658 26.3568 37.1463 26.3763 36.4192C26.3957 35.6924 26.6034 34.9827 26.9793 34.3591C27.3549 33.7355 27.8861 33.2191 28.5212 32.8598C29.1564 32.5006 29.8739 32.3104 30.6045 32.3084H71.8349C72.547 32.3084 73.2472 32.492 73.8671 32.8412C74.4872 33.1903 75.0057 33.693 75.3725 34.3008C75.7393 34.9085 75.942 35.6006 75.9607 36.3092C75.9794 37.0181 75.8135 37.7195 75.4793 38.3457Z" fill="#F71963"/></symbol>
	<symbol id="Insomnia" fill="#7A90FF" viewBox="0 0 24 24" role="img" xmlns="http://www.w3.org/2000/svg"><path d="M12 0C5.417 0 0 5.417 0 12s5.417 12 12 12 12-5.417 12-12S18.583 0 12 0zm0 2.478c5.256 0 9.522 4.266 9.522 9.522S17.256 21.522 12 21.522 2.478 17.256 2.478 12c0-.885.12-1.741.347-2.554a4.76 4.76 0 0 0 3.925 2.066 4.764 4.764 0 0 0 4.762-4.762 4.758 4.758 0 0 0-2.067-3.925A9.526 9.526 0 0 1 12 2.478Z"/></symbol>
	<symbol id="Jira" fill="#7A90FF" viewBox="0 0 24 24" role="img" xmlns="http://www.w3.org/2000/svg"><path d="M11.571 11.513H0a5.218 5.218 0 0 0 5.232 5.215h2.13v2.057A5.215 5.215 0 0 0 12.575 24V12.518a1.005 1.005 0 0 0-1.005-1.005zm5.723-5.756H5.736a5.215 5.215 0 0 0 5.215 5.214h2.129v2.058a5.218 5.218 0 0 0 5.215 5.214V6.758a1.001 1.001 0 0 0-1.001-1.001zM23.013 0H11.455a5.215 5.215 0 0 0 5.215 5.215h2.129v2.057A5.215 5.215 0 0 0 24 12.483V1.005A1.001 1.001 0 0 0 23.013 0Z"/></symbol>
	<symbol id="Linux" fill="#7A90FF" version="1.1" xmlns="http://www.w3.org/2000/svg" xmlns:xlink="http://www.w3.org/1999/xlink" viewBox="0 0 304.998 304.998" xml:space="preserve"><g id="XMLID_91_"><path id="XMLID_92_" d="M274.659,244.888c-8.944-3.663-12.77-8.524-12.4-15.777c0.381-8.466-4.422-14.667-6.703-17.117c1.378-5.264,5.405-23.474,0.004-39.291c-5.804-16.93-23.524-42.787-41.808-68.204c-7.485-10.438-7.839-21.784-8.248-34.922c-0.392-12.531-0.834-26.735-7.822-42.525C190.084,9.859,174.838,0,155.851,0c-11.295,0-22.889,3.53-31.811,9.684c-18.27,12.609-15.855,40.1-14.257,58.291c0.219,2.491,0.425,4.844,0.545,6.853c1.064,17.816,0.096,27.206-1.17,30.06c-0.819,1.865-4.851,7.173-9.118,12.793c-4.413,5.812-9.416,12.4-13.517,18.539c-4.893,7.387-8.843,18.678-12.663,29.597c-2.795,7.99-5.435,15.537-8.005,20.047c-4.871,8.676-3.659,16.766-2.647,20.505c-1.844,1.281-4.508,3.803-6.757,8.557c-2.718,5.8-8.233,8.917-19.701,11.122c-5.27,1.078-8.904,3.294-10.804,6.586c-2.765,4.791-1.259,10.811,0.115,14.925c2.03,6.048,0.765,9.876-1.535,16.826c-0.53,1.604-1.131,3.42-1.74,5.423c-0.959,3.161-0.613,6.035,1.026,8.542c4.331,6.621,16.969,8.956,29.979,10.492c7.768,0.922,16.27,4.029,24.493,7.035c8.057,2.944,16.388,5.989,23.961,6.913c1.151,0.145,2.291,0.218,3.39,0.218c11.434,0,16.6-7.587,18.238-10.704c4.107-0.838,18.272-3.522,32.871-3.882c14.576-0.416,28.679,2.462,32.674,3.357c1.256,2.404,4.567,7.895,9.845,10.724c2.901,1.586,6.938,2.495,11.073,2.495c0.001,0,0,0,0.001,0c4.416,0,12.817-1.044,19.466-8.039c6.632-7.028,23.202-16,35.302-22.551c2.7-1.462,5.226-2.83,7.441-4.065c6.797-3.768,10.506-9.152,10.175-14.771C282.445,250.905,279.356,246.811,274.659,244.888z M124.189,243.535c-0.846-5.96-8.513-11.871-17.392-18.715c-7.26-5.597-15.489-11.94-17.756-17.312c-4.685-11.082-0.992-30.568,5.447-40.602c3.182-5.024,5.781-12.643,8.295-20.011c2.714-7.956,5.521-16.182,8.66-19.783c4.971-5.622,9.565-16.561,10.379-25.182c4.655,4.444,11.876,10.083,18.547,10.083c1.027,0,2.024-0.134,2.977-0.403c4.564-1.318,11.277-5.197,17.769-8.947c5.597-3.234,12.499-7.222,15.096-7.585c4.453,6.394,30.328,63.655,32.972,82.044c2.092,14.55-0.118,26.578-1.229,31.289c-0.894-0.122-1.96-0.221-3.08-0.221c-7.207,0-9.115,3.934-9.612,6.283c-1.278,6.103-1.413,25.618-1.427,30.003c-2.606,3.311-15.785,18.903-34.706,21.706c-7.707,1.12-14.904,1.688-21.39,1.688c-5.544,0-9.082-0.428-10.551-0.651l-9.508-10.879C121.429,254.489,125.177,250.583,124.189,243.535z M136.254,64.149c-0.297,0.128-0.589,0.265-0.876,0.411c-0.029-0.644-0.096-1.297-0.199-1.952c-1.038-5.975-5-10.312-9.419-10.312c-0.327,0-0.656,0.025-1.017,0.08c-2.629,0.438-4.691,2.413-5.821,5.213c0.991-6.144,4.472-10.693,8.602-10.693c4.85,0,8.947,6.536,8.947,14.272C136.471,62.143,136.4,63.113,136.254,64.149z M173.94,68.756c0.444-1.414,0.684-2.944,0.684-4.532c0-7.014-4.45-12.509-10.131-12.509c-5.552,0-10.069,5.611-10.069,12.509c0,0.47,0.023,0.941,0.067,1.411c-0.294-0.113-0.581-0.223-0.861-0.329c-0.639-1.935-0.962-3.954-0.962-6.015c0-8.387,5.36-15.211,11.95-15.211c6.589,0,11.95,6.824,11.95,15.211C176.568,62.78,175.605,66.11,173.94,68.756z M169.081,85.08c-0.095,0.424-0.297,0.612-2.531,1.774c-1.128,0.587-2.532,1.318-4.289,2.388l-1.174,0.711c-4.718,2.86-15.765,9.559-18.764,9.952c-2.037,0.274-3.297-0.516-6.13-2.441c-0.639-0.435-1.319-0.897-2.044-1.362c-5.107-3.351-8.392-7.042-8.763-8.485c1.665-1.287,5.792-4.508,7.905-6.415c4.289-3.988,8.605-6.668,10.741-6.668c0.113,0,0.215,0.008,0.321,0.028c2.51,0.443,8.701,2.914,13.223,4.718c2.09,0.834,3.895,1.554,5.165,2.01C166.742,82.664,168.828,84.422,169.081,85.08z M205.028,271.45c2.257-10.181,4.857-24.031,4.436-32.196c-0.097-1.855-0.261-3.874-0.42-5.826c-0.297-3.65-0.738-9.075-0.283-10.684c0.09-0.042,0.19-0.078,0.301-0.109c0.019,4.668,1.033,13.979,8.479,17.226c2.219,0.968,4.755,1.458,7.537,1.458c7.459,0,15.735-3.659,19.125-7.049c1.996-1.996,3.675-4.438,4.851-6.372c0.257,0.753,0.415,1.737,0.332,3.005c-0.443,6.885,2.903,16.019,9.271,19.385l0.927,0.487c2.268,1.19,8.292,4.353,8.389,5.853c-0.001,0.001-0.051,0.177-0.387,0.489c-1.509,1.379-6.82,4.091-11.956,6.714c-9.111,4.652-19.438,9.925-24.076,14.803c-6.53,6.872-13.916,11.488-18.376,11.488c-0.537,0-1.026-0.068-1.461-0.206C206.873,288.406,202.886,281.417,205.028,271.45z M39.917,245.477c-0.494-2.312-0.884-4.137-0.465-5.905c0.304-1.31,6.771-2.714,9.533-3.313c3.883-0.843,7.899-1.714,10.525-3.308c3.551-2.151,5.474-6.118,7.17-9.618c1.228-2.531,2.496-5.148,4.005-6.007c0.085-0.05,0.215-0.108,0.463-0.108c2.827,0,8.759,5.943,12.177,11.262c0.867,1.341,2.473,4.028,4.331,7.139c5.557,9.298,13.166,22.033,17.14,26.301c3.581,3.837,9.378,11.214,7.952,17.541c-1.044,4.909-6.602,8.901-7.913,9.784c-0.476,0.108-1.065,0.163-1.758,0.163c-7.606,0-22.662-6.328-30.751-9.728l-1.197-0.503c-4.517-1.894-11.891-3.087-19.022-4.241c-5.674-0.919-13.444-2.176-14.732-3.312c-1.044-1.171,0.167-4.978,1.235-8.337c0.769-2.414,1.563-4.91,1.998-7.523C41.225,251.596,40.499,248.203,39.917,245.477z"/></g></symbol>
	<symbol id="Notion" viewBox="0 0 80 80" fill="none" xmlns="http://www.w3.org/2000/svg"><path d="M33.3333 56.6667H30V31.6667L47.394 57.7577C48.9567 60.1017 51.8247 61.2107 54.558 60.5273L55.4043 60.3157C56.1463 60.13 56.6667 59.4633 56.6667 58.6987V23.3333C56.6667 23.3333 60 23.3333 60 20H50C46.6667 20 46.6667 23.3333 46.6667 23.3333H50V43.3333L33.832 20.6979C33.519 20.2599 33.0142 20 32.4759 20H23.3333C20 20 20 23.3333 20 23.3333H23.3333V56.6667C23.3333 56.6667 20 56.6667 20 60H30C33.3333 60 33.3333 56.6667 33.3333 56.6667Z" fill="#7A90FF"/><path fill-rule="evenodd" clip-rule="evenodd" d="M3.33398 13.3333C3.33398 7.81042 7.81115 3.33325 13.334 3.33325H66.6673C72.1903 3.33325 76.6673 7.81042 76.6673 13.3333V66.6666C76.6673 72.1896 72.1903 76.6666 66.6673 76.6666H13.334C7.81115 76.6666 3.33398 72.1896 3.33398 66.6666V13.3333ZM13.334 9.99992H66.6673C68.5083 9.99992 70.0006 11.4923 70.0006 13.3333V66.6666C70.0006 68.5076 68.5083 69.9999 66.6673 69.9999H13.334C11.4931 69.9999 10.0007 68.5076 10.0007 66.6666V13.3333C10.0007 11.4923 11.4931 9.99992 13.334 9.99992Z" fill="#7A90FF"/></symbol>
	<symbol id="Trello" fill="#7A90FF" viewBox="-2 -2 24 24" xmlns="http://www.w3.org/2000/svg" preserveAspectRatio="xMinYMin" class="jam jam-trello"><path d='M17.562 0H2.438A2.435 2.435 0 0 0 0 2.432v15.087a2.435 2.435 0 0 0 2.438 2.432h15.124A2.435 2.435 0 0 0 20 17.519V2.432A2.435 2.435 0 0 0 17.562 0zM8.7 15.55a1.13 1.13 0 0 1-1.132 1.13H3.732A1.13 1.13 0 0 1 2.6 15.55V3.893c0-.624.507-1.13 1.132-1.13h3.836A1.13 1.13 0 0 1 8.7 3.893V15.55zm8.7-5.015a1.13 1.13 0 0 1-1.132 1.13h-3.836a1.13 1.13 0 0 1-1.132-1.13V3.893c0-.624.507-1.13 1.132-1.13h3.836a1.13 1.13 0 0 1 1.132 1.13v6.642z' /></symbol>
	<symbol id="Vscode" viewBox="0 0 81 81" fill="none" xmlns="http://www.w3.org/2000/svg"><path d="M73.0253 13.0751L58.6103 6.13506C57.7963 5.74256 56.8803 5.61303 55.9893 5.76444C55.0983 5.91584 54.2765 6.34068 53.6378 6.98006L6.45032 50.0001C5.87779 50.5196 5.53508 51.2452 5.49758 52.0174C5.46007 52.7896 5.73084 53.545 6.25032 54.1176C6.31282 54.1851 6.37532 54.2501 6.44282 54.3101L10.2953 57.8101C10.7987 58.2682 11.4467 58.5356 12.1267 58.5657C12.8067 58.5959 13.4758 58.3869 14.0178 57.9751L70.8553 14.8751C71.2846 14.5493 71.7964 14.3498 72.3329 14.2991C72.8694 14.2484 73.4094 14.3484 73.8922 14.588C74.3749 14.8275 74.7812 15.1971 75.0653 15.655C75.3495 16.113 75.5001 16.6411 75.5003 17.1801V17.0126C75.5003 16.1898 75.268 15.3838 74.8301 14.6872C74.3923 13.9907 73.7667 13.4318 73.0253 13.0751Z" fill="#7A90FF"/><path d="M73.0253 67.9249L58.6103 74.8674C57.796 75.2588 56.8803 75.3877 55.9896 75.2363C55.0989 75.085 54.2771 74.6608 53.6378 74.0224L6.45032 30.9999C5.87779 30.4804 5.53508 29.7547 5.49758 28.9825C5.46007 28.2104 5.73084 27.4549 6.25032 26.8824C6.31282 26.8149 6.37532 26.7499 6.44282 26.6899L10.2953 23.1899C10.7992 22.7298 11.4487 22.4612 12.1304 22.4311C12.8121 22.4009 13.4827 22.6111 14.0253 23.0249L70.8553 66.1249C71.2846 66.4506 71.7964 66.6501 72.3329 66.7008C72.8694 66.7516 73.4094 66.6515 73.8922 66.4119C74.3749 66.1724 74.7812 65.8028 75.0653 65.3449C75.3495 64.887 75.5001 64.3588 75.5003 63.8199V63.9999C75.4976 64.8204 75.2641 65.6237 74.8264 66.3178C74.3887 67.0119 73.7646 67.5688 73.0253 67.9249Z" fill="#7A90FF"/><path d="M58.6095 74.8675C57.7952 75.2589 56.8794 75.3878 55.9887 75.2364C55.098 75.0851 54.2763 74.6609 53.637 74.0225C53.996 74.3768 54.4516 74.6173 54.9467 74.7138C55.4418 74.8103 55.9543 74.7586 56.4202 74.565C56.886 74.3715 57.2843 74.0448 57.5652 73.6259C57.8462 73.2069 57.9972 72.7144 57.9995 72.21V8.78997C57.9999 8.28319 57.8499 7.78769 57.5684 7.36624C57.287 6.94478 56.8868 6.61634 56.4186 6.4225C55.9504 6.22867 55.4351 6.17818 54.9381 6.27742C54.4412 6.37666 53.9848 6.62117 53.627 6.97997C54.2658 6.34083 55.0874 5.91596 55.9782 5.76413C56.869 5.6123 57.785 5.74102 58.5995 6.13247L73.012 13.0625C73.7557 13.4175 74.3838 13.9755 74.824 14.6722C75.2641 15.3689 75.4983 16.1759 75.4995 17V64C75.4996 64.8234 75.2672 65.6301 74.8289 66.3272C74.3905 67.0243 73.7642 67.5834 73.022 67.94L58.6095 74.8675Z" fill="#7A90FF"/></symbol>
	<symbol id="Windows" version="1.1" xmlns="http://www.w3.org/2000/svg" xmlns:xlink="http://www.w3.org/1999/xlink" viewBox="0 0 452.986 452.986" xml:space="preserve"><g><g><path style="fill:#7A90FF;" d="M165.265,53.107L21.689,81.753v132.531l143.575-2.416V53.107 M431.297,245.583l-233.18-3.991v164.822l233.18,46.571V245.583 M165.265,241.097l-143.575-2.438v132.509l143.575,28.668V241.097 M431.297,0l-233.18,46.528v164.822l233.18-3.969V0" /></g></g></symbol>
</svg>