<svg width="238" height="238" viewBox="0 0 238 238" fill="none" xmlns="http://www.w3.org/2000/svg">
<path d="M93.3731 2.36539C58.573 10.6321 28.5731 33.8321 12.8397 64.7654C-10.3603 110.765 -1.56028 165.965 34.7064 202.365C44.0397 211.699 63.2397 225.165 67.2397 225.165C67.6397 225.165 68.1731 198.365 68.3064 165.565L68.7064 105.832L73.5064 113.165C76.0397 117.165 80.5731 124.232 83.5064 128.765C86.3064 133.299 89.2397 136.899 90.0397 136.632C90.7064 136.499 95.6397 129.699 100.973 121.699L110.706 107.165V138.232V169.165L113.906 169.965C115.64 170.365 118.973 170.499 121.506 170.232L126.04 169.699L126.44 125.432L126.706 81.1654H118.306H109.773L100.04 95.8321C94.7064 103.832 90.1731 110.499 90.0397 110.499C89.7731 110.499 85.3731 103.832 80.0397 95.8321L70.3064 81.1654H61.7731H53.3731L53.1064 139.965L52.7064 198.765L44.9731 191.032C35.3731 181.299 28.9731 171.832 23.3731 158.765C1.77305 109.032 23.9064 49.6987 72.7064 25.8321C117.906 3.83206 168.306 15.4321 200.706 55.1654C205.373 60.8987 212.573 73.2987 214.04 78.0987L214.84 81.1654H172.173H129.373V125.432V169.832L136.706 169.432L144.04 168.899V147.699V126.499H161.906H179.64L179.24 119.432L178.973 112.499L161.506 112.099L144.04 111.699V103.832V95.8321H189.506H234.973L234.173 90.7654C232.306 80.4987 224.306 62.6321 216.44 51.0321C203.906 32.6321 180.973 14.6321 160.04 6.89873C141.106 -0.16794 112.573 -2.03461 93.3731 2.36539Z" fill="#0024FA"/>
<path d="M222.04 116.765C222.04 127.965 221.373 135.299 219.506 142.499C209.64 181.032 181.106 209.565 142.706 219.299C124.573 223.832 94.9731 221.832 81.3731 215.165C72.4398 210.765 72.0398 210.899 72.0398 219.699C72.0398 227.832 72.0398 227.832 76.9731 229.965C86.7065 233.965 104.44 237.165 118.173 237.165C166.84 237.299 210.04 208.365 228.44 163.832C234.973 147.832 237.506 133.965 237.106 116.365L236.706 101.832L229.373 101.432L221.906 101.032L222.04 116.765Z" fill="white"/>
</svg>
