<svg width="470" height="371" viewBox="0 0 470 371" fill="none" xmlns="http://www.w3.org/2000/svg">
<path d="M31.7478 322.12C20.9698 310.665 12.6818 296.269 7.7158 278.705C-4.3892 235.892 -2.8722 183.595 24.4978 146.778C41.5038 123.902 66.6278 108.161 94.2898 101.758C123.058 95.0988 130.267 69.6228 148.809 49.5838C164.448 32.6818 186.129 19.2778 207.503 11.0838C264.942 -10.9362 351.143 1.75278 384.428 59.5268C393.15 74.6658 396.046 93.2758 406.277 107.543C417.223 122.807 435.168 130.382 446.223 145.349C457.396 160.476 463.871 178.826 466.297 197.381C469.447 221.474 466.122 246.014 460.27 269.596C432.057 383.283 278.01 351.107 190.71 354.961C164.706 356.109 138.659 358.987 112.711 356.929C82.6728 354.547 52.8128 344.509 31.7478 322.12Z" fill="#32334C"/>
<path d="M233.93 370.808C351.979 370.808 447.677 360.851 447.677 348.568C447.677 336.285 351.979 326.328 233.93 326.328C115.88 326.328 20.1826 336.285 20.1826 348.568C20.1826 360.851 115.88 370.808 233.93 370.808Z" fill="#242537"/>
<path d="M267.76 218.854C268.642 222.408 268.281 226.141 267.783 229.779C267.013 235.444 265.917 241.115 263.725 246.403C261.002 252.967 256.447 259.228 250.721 263.502C249.184 264.651 247.654 265.439 246.104 265.986C244.818 266.441 243.527 266.726 242.198 266.916C239.413 267.314 236.489 267.281 233.273 267.457C218.049 268.283 203.437 265.771 190.379 257.439C186.344 254.868 182.499 251.745 180.17 247.56C178.893 245.271 178.149 242.606 178.152 239.994C178.146 238.63 178.35 237.279 178.782 236.003C179.026 235.261 179.354 234.551 179.765 233.87C183.118 228.323 190.512 226.941 196.992 226.966C188.587 225.589 180.685 221.3 174.956 214.995C171.712 211.425 169.079 206.855 169.103 202.101C169.106 201.577 169.143 201.057 169.21 200.528C169.32 199.699 169.55 198.888 169.88 198.111C171.633 193.897 176.254 190.74 180.535 192.193C176.621 187.128 172.7 182.065 168.779 177.002C166.013 173.417 163.191 169.76 161.676 165.485C160.41 161.908 160.184 157.775 161.682 154.347C161.967 153.682 162.321 153.053 162.741 152.451C163.084 151.965 163.477 151.51 163.913 151.108C166.786 148.391 171.461 147.459 174.651 149.77C171.883 143.051 169.086 136.219 168.33 128.992C167.582 121.762 169.135 113.955 174.126 108.666C175.376 107.339 176.875 106.226 178.508 105.374C179.684 104.758 180.936 104.273 182.22 103.942C186.221 102.899 190.52 103.34 193.889 105.725C197.985 108.637 199.965 113.645 201.638 118.384C203.972 124.997 206.135 131.665 208.125 138.38C207.338 133.266 212.742 128.678 217.899 129.064C218.686 129.121 219.454 129.267 220.195 129.487C221.553 129.892 222.83 130.553 223.986 131.4C226.347 133.119 228.243 135.602 229.435 138.286C231.532 143.02 231.859 148.307 232.163 153.47C232.531 159.799 232.9 166.128 233.268 172.458C233.592 167.771 239.119 164.658 243.685 165.774C243.926 165.836 244.169 165.905 244.407 165.984C245.794 166.429 247.048 167.171 248.161 168.114C250.395 170.021 252.022 172.762 252.862 175.626C254.19 180.133 253.912 184.935 253.619 189.62C253.102 197.977 252.585 206.335 252.068 214.692C252.925 211.863 255.998 210.227 258.978 210.332C259.695 210.347 260.398 210.472 261.07 210.706C261.652 210.911 262.203 211.176 262.73 211.489C265.28 213.058 267.027 215.891 267.76 218.854Z" fill="#C3B7FC"/>
<path d="M236.96 249.226C239.857 254.897 242.884 260.509 246.103 265.986C244.817 266.441 243.526 266.726 242.197 266.916C241.408 265.558 240.626 264.198 239.865 262.823C237.495 258.562 235.192 254.255 232.943 249.914C214.126 250.964 195.317 247.544 178.151 239.995C178.145 238.631 178.349 237.28 178.781 236.004C195.135 243.365 212.984 246.832 230.988 246.101C226.008 236.273 221.325 226.276 216.879 216.178C200.107 214.762 183.859 210.018 169.102 202.102C169.105 201.578 169.142 201.058 169.209 200.529C169.319 199.7 169.549 198.889 169.879 198.112C183.846 205.759 199.215 210.572 215.119 212.137C210.49 201.444 206.113 190.645 201.914 179.837C201.794 179.54 201.681 179.241 201.568 178.942C186.059 174.738 173.135 165.299 161.681 154.348C161.966 153.683 162.32 153.054 162.74 152.452C163.083 151.966 163.476 151.511 163.912 151.109C174.307 161.133 185.965 169.972 199.81 174.369C194.963 161.651 190.412 148.813 186.265 135.853C183.062 125.854 180.238 115.709 178.507 105.375C179.683 104.759 180.935 104.274 182.219 103.943C184.261 116.566 188.007 128.861 192.05 141.011C195.854 152.421 199.92 163.754 204.223 174.986C208.184 172.295 210.326 168.095 212.02 163.647C213.942 158.585 215.535 153.343 216.948 148.126C218.612 141.985 219.832 135.758 220.194 129.489C221.552 129.894 222.829 130.555 223.985 131.402C223.42 138.187 221.937 144.916 220.036 151.493C217.321 160.877 214.703 173.306 205.659 178.689C210.336 190.725 215.289 202.656 220.538 214.46C234.636 202.181 243.129 184.439 244.405 165.986C245.792 166.431 247.046 167.173 248.159 168.116C246.348 187.298 237.027 205.493 222.189 218.142C223.371 220.773 224.559 223.393 225.768 226.007C228.806 232.573 231.911 239.167 235.172 245.686C246.555 236.564 256.074 224.449 258.976 210.333C259.693 210.348 260.396 210.473 261.068 210.707C261.65 210.912 262.201 211.177 262.728 211.49C259.485 226.575 249.204 239.524 236.96 249.226Z" fill="#DFDBFC"/>
<path d="M355.075 246.738C354.264 250.005 354.596 253.437 355.054 256.781C355.762 261.989 356.769 267.203 358.785 272.064C361.288 278.098 365.475 283.854 370.74 287.783C372.153 288.839 373.559 289.563 374.985 290.067C376.167 290.485 377.354 290.747 378.576 290.922C381.136 291.288 383.824 291.258 386.781 291.42C400.776 292.179 414.21 289.87 426.214 282.21C429.924 279.847 433.458 276.975 435.599 273.128C436.773 271.024 437.457 268.573 437.454 266.173C437.459 264.918 437.272 263.677 436.875 262.504C436.65 261.823 436.349 261.169 435.972 260.544C432.89 255.445 426.092 254.174 420.135 254.197C427.862 252.931 435.126 248.989 440.392 243.192C443.374 239.91 445.795 235.709 445.773 231.339C445.77 230.857 445.736 230.379 445.674 229.893C445.573 229.131 445.362 228.386 445.058 227.671C443.447 223.797 439.198 220.895 435.263 222.231C438.861 217.575 442.465 212.92 446.07 208.266C448.613 204.97 451.207 201.608 452.6 197.678C453.764 194.39 453.972 190.59 452.594 187.438C452.332 186.827 452.007 186.249 451.62 185.696C451.305 185.249 450.943 184.831 450.543 184.462C447.902 181.964 443.604 181.107 440.671 183.232C443.216 177.055 445.787 170.775 446.482 164.13C447.17 157.484 445.742 150.306 441.154 145.444C440.005 144.224 438.627 143.201 437.126 142.417C436.045 141.851 434.894 141.405 433.713 141.1C430.035 140.141 426.083 140.547 422.985 142.739C419.219 145.416 417.399 150.02 415.861 154.377C413.716 160.456 411.727 166.586 409.898 172.76C410.622 168.058 405.653 163.841 400.913 164.196C400.189 164.249 399.484 164.383 398.802 164.585C397.554 164.958 396.38 165.565 395.317 166.344C393.146 167.924 391.403 170.206 390.308 172.675C388.38 177.027 388.079 181.887 387.8 186.634C387.461 192.452 387.123 198.271 386.784 204.09C386.486 199.782 381.405 196.919 377.208 197.945C376.987 198.002 376.763 198.065 376.544 198.138C375.269 198.547 374.116 199.23 373.093 200.096C371.039 201.849 369.543 204.37 368.771 207.002C367.55 211.145 367.806 215.56 368.075 219.867C368.55 227.55 369.026 235.233 369.501 242.916C368.713 240.315 365.888 238.811 363.149 238.908C362.49 238.922 361.844 239.037 361.226 239.252C360.691 239.441 360.184 239.684 359.7 239.972C357.354 241.409 355.748 244.014 355.075 246.738Z" fill="#E08675"/>
<path d="M383.389 274.659C380.725 279.872 377.943 285.032 374.984 290.067C376.166 290.485 377.353 290.747 378.575 290.922C379.3 289.673 380.019 288.423 380.719 287.159C382.898 283.242 385.015 279.282 387.082 275.291C404.381 276.256 421.671 273.112 437.453 266.172C437.458 264.917 437.271 263.676 436.874 262.503C421.84 269.27 405.431 272.457 388.88 271.785C393.458 262.751 397.764 253.56 401.851 244.277C417.27 242.975 432.206 238.614 445.772 231.337C445.769 230.855 445.735 230.377 445.673 229.891C445.572 229.129 445.361 228.384 445.057 227.669C432.217 234.699 418.088 239.124 403.468 240.563C407.723 230.733 411.747 220.805 415.608 210.869C415.718 210.596 415.822 210.321 415.926 210.046C430.184 206.181 442.064 197.504 452.594 187.436C452.332 186.825 452.007 186.247 451.62 185.694C451.305 185.247 450.943 184.829 450.543 184.46C440.987 193.675 430.269 201.801 417.542 205.843C421.998 194.151 426.181 182.349 429.994 170.435C432.938 161.243 435.535 151.916 437.126 142.417C436.045 141.851 434.894 141.405 433.713 141.1C431.835 152.704 428.392 164.007 424.676 175.177C421.179 185.666 417.441 196.084 413.485 206.41C409.843 203.936 407.874 200.075 406.317 195.986C404.55 191.333 403.086 186.513 401.786 181.717C400.256 176.072 399.135 170.347 398.802 164.583C397.554 164.956 396.38 165.563 395.317 166.342C395.837 172.58 397.2 178.766 398.947 184.812C401.443 193.439 403.85 204.865 412.163 209.813C407.864 220.878 403.31 231.846 398.485 242.697C385.525 231.409 377.717 215.099 376.544 198.135C375.269 198.544 374.116 199.227 373.093 200.093C374.758 217.727 383.326 234.454 396.967 246.082C395.88 248.5 394.788 250.909 393.676 253.312C390.883 259.348 388.029 265.41 385.031 271.403C374.567 263.017 365.816 251.88 363.148 238.903C362.489 238.917 361.843 239.032 361.225 239.247C360.69 239.436 360.183 239.679 359.699 239.967C362.681 253.836 372.133 265.74 383.389 274.659Z" fill="#D7594A"/>
<path d="M457.731 251.622C454.645 253.235 452.056 255.801 449.502 258.138C446.869 260.547 444.301 263.027 441.796 265.568C436.782 270.654 432.035 275.997 427.496 281.51C418.391 292.571 410.124 304.292 402.28 316.272C397.871 323.006 393.593 329.825 389.359 336.671C388.546 337.986 390.617 339.207 391.429 337.891C406.274 313.829 421.787 289.959 441.304 269.365C444.053 266.464 446.879 263.636 449.787 260.895C452.671 258.177 455.992 255.708 458.461 252.603C458.875 252.084 458.396 251.275 457.731 251.622Z" fill="#ECBF4C"/>
<path d="M468.661 245.413C467.218 243.318 463.68 243.776 461.491 244.23C456.326 245.301 451.82 248.795 448.133 252.63C445.429 255.444 443.007 258.544 440.865 261.823C438.748 265.062 436.735 268.613 435.836 272.401C435.72 272.891 436.11 273.153 436.483 273.089C436.738 273.311 437.09 273.423 437.508 273.316C443.254 271.834 448.796 269.399 453.868 266.124C456.418 264.478 458.833 262.614 461.11 260.577C463.48 258.457 465.843 256.145 467.51 253.385C468.828 251.202 470.239 247.704 468.661 245.413Z" fill="#ECBF4C"/>
<path d="M432.395 273.566C433.457 270.423 434.414 267.257 435.197 264.063C435.97 260.913 436.586 257.735 436.997 254.569C437.356 251.8 437.48 248.861 436.136 246.673C434.882 244.633 432.622 243.846 430.195 244.776C427.607 245.768 425.646 248.251 424.24 250.791C421.354 256.001 420.485 261.928 420.837 267.398C421.034 270.459 421.612 273.445 422.643 276.158C423.149 277.492 423.765 278.741 424.519 279.896C425.176 280.903 425.891 281.679 426.739 282.407C426.853 282.57 427.005 282.697 427.18 282.772C427.223 282.806 427.264 282.841 427.307 282.875C427.473 283.006 427.654 282.948 427.787 282.811C427.992 282.753 428.203 282.624 428.402 282.401C430.538 280.017 431.402 276.505 432.395 273.566Z" fill="#ECBF4C"/>
<path d="M418.932 287.387C418.913 284.166 418.789 280.957 418.498 277.778C418.211 274.643 417.771 271.53 417.146 268.494C416.599 265.839 415.783 263.101 413.857 261.519C412.061 260.043 409.737 260.036 407.803 261.658C405.742 263.387 404.727 266.287 404.24 269.064C403.24 274.759 404.317 280.475 406.371 285.385C407.52 288.132 408.996 290.69 410.8 292.854C411.687 293.918 412.648 294.87 413.705 295.691C414.626 296.407 415.528 296.894 416.537 297.294C416.693 297.408 416.873 297.476 417.058 297.49C417.108 297.508 417.156 297.527 417.207 297.544C417.401 297.611 417.548 297.501 417.627 297.333C417.797 297.215 417.949 297.03 418.062 296.762C419.269 293.896 418.951 290.399 418.932 287.387Z" fill="#ECBF4C"/>
<path d="M406.837 303.649C406.486 300.447 406.033 297.268 405.416 294.135C404.808 291.046 404.05 287.995 403.115 285.039C402.298 282.454 401.204 279.815 399.126 278.439C397.187 277.156 394.875 277.388 393.119 279.2C391.246 281.132 390.536 284.121 390.337 286.933C389.928 292.701 391.588 298.276 394.136 302.948C395.562 305.562 397.293 307.955 399.311 309.922C400.302 310.889 401.356 311.737 402.492 312.445C403.482 313.062 404.429 313.454 405.475 313.748C405.642 313.845 405.828 313.895 406.013 313.889C406.065 313.902 406.115 313.915 406.167 313.927C406.367 313.974 406.502 313.849 406.564 313.674C406.721 313.539 406.853 313.339 406.938 313.061C407.842 310.089 407.165 306.643 406.837 303.649Z" fill="#ECBF4C"/>
<path d="M395.251 319.616C394.716 316.472 394.078 313.356 393.276 310.294C392.485 307.275 391.545 304.301 390.431 301.43C389.457 298.92 388.198 296.37 386.01 295.12C383.968 293.953 381.632 294.302 379.949 296.183C378.154 298.188 377.6 301.176 377.554 303.964C377.461 309.681 379.458 315.101 382.308 319.582C383.903 322.09 385.795 324.363 387.955 326.201C389.016 327.105 390.134 327.887 391.328 328.528C392.369 329.086 393.353 329.424 394.431 329.66C394.606 329.747 394.798 329.786 394.985 329.772C395.038 329.782 395.09 329.793 395.144 329.802C395.35 329.838 395.48 329.708 395.533 329.531C395.685 329.39 395.808 329.185 395.879 328.906C396.631 325.923 395.751 322.556 395.251 319.616Z" fill="#ECBF4C"/>
<path d="M404.26 326.024C407.43 325.67 410.6 325.422 413.764 325.347C416.884 325.273 420.001 325.355 423.068 325.633C425.75 325.876 428.548 326.381 430.355 328.139C432.041 329.779 432.35 332.121 431.008 334.258C429.577 336.537 426.858 337.895 424.192 338.709C418.723 340.378 412.963 339.955 407.868 338.454C405.017 337.614 402.31 336.423 399.947 334.855C398.785 334.084 397.724 333.226 396.778 332.256C395.954 331.41 395.358 330.557 394.833 329.587C394.701 329.443 394.61 329.269 394.573 329.085C394.549 329.037 394.524 328.99 394.5 328.941C394.408 328.753 394.498 328.592 394.653 328.493C394.747 328.308 394.909 328.133 395.158 327.988C397.817 326.44 401.297 326.355 404.26 326.024Z" fill="#ECBF4C"/>
<path d="M415.364 309.845C418.571 309.46 421.781 309.186 424.988 309.09C428.151 308.996 431.315 309.064 434.432 309.336C437.158 309.574 440.008 310.082 441.882 311.896C443.63 313.588 444 316.017 442.689 318.242C441.291 320.614 438.566 322.039 435.88 322.898C430.372 324.66 424.519 324.253 419.316 322.724C416.405 321.868 413.63 320.647 411.196 319.034C409.999 318.241 408.903 317.356 407.92 316.354C407.064 315.481 406.439 314.599 405.884 313.595C405.747 313.446 405.65 313.266 405.608 313.076C405.582 313.026 405.556 312.978 405.531 312.927C405.434 312.733 405.52 312.565 405.675 312.461C405.766 312.268 405.926 312.086 406.175 311.934C408.838 310.312 412.366 310.205 415.364 309.845Z" fill="#ECBF4C"/>
<path d="M467.08 280.004C467.288 277.587 466.021 275.123 463.457 273.51C458.945 270.672 452.727 271.897 447.839 272.97C442.381 274.168 437.12 276.271 432.356 279.192C431.196 279.903 430.047 280.581 428.842 281.206C428.477 281.395 428.078 281.138 427.765 281.531C425.606 284.254 436.361 287.344 438.225 287.871C443.655 289.409 449.636 290.208 455.173 289.006C459.927 287.974 466.585 285.768 467.08 280.004Z" fill="#ECBF4C"/>
<path d="M454.139 302.162C454.818 299.927 454.116 297.335 452.02 295.272C448.331 291.641 442.22 291.481 437.394 291.459C432.006 291.434 426.622 292.304 421.543 294.051C420.307 294.476 419.086 294.873 417.825 295.207C417.443 295.308 417.117 294.981 416.744 295.285C414.163 297.396 423.692 302.585 425.344 303.476C430.16 306.075 435.642 308.093 441.106 308.132C445.797 308.165 452.519 307.493 454.139 302.162Z" fill="#ECBF4C"/>
<path d="M318.911 78.1547L220.047 182.097L288.909 247.595L387.773 143.652L318.911 78.1547Z" fill="#ECBF4C"/>
<path d="M288.902 247.606L299.358 158.563L387.767 143.669L288.902 247.606Z" fill="#E5B340"/>
<path d="M220.043 182.108L306.026 172.968C310.422 172.501 313.831 168.917 314.078 164.503L318.909 78.1709L220.043 182.108Z" fill="#DFA331"/>
<path d="M397.324 339.994H313.325C311.625 339.994 310.247 338.616 310.247 336.916V199.285C310.247 197.585 311.625 196.207 313.325 196.207H397.324C399.024 196.207 400.402 197.585 400.402 199.285V336.916C400.402 338.616 399.024 339.994 397.324 339.994Z" fill="#C3B7FC"/>
<path d="M394.809 203.153H315.841V319.593H394.809V203.153Z" fill="#363271"/>
<path opacity="0.08" d="M394.809 319.594H315.841V203.153L394.809 319.594Z" fill="white"/>
<path d="M363.057 329.629C363.057 333.899 359.595 337.361 355.325 337.361C351.055 337.361 347.593 333.899 347.593 329.629C347.593 325.358 351.055 321.897 355.325 321.897C359.595 321.897 363.057 325.358 363.057 329.629Z" fill="#363271"/>
<path d="M385.064 154.782C362.671 154.782 344.518 168.397 344.518 185.192C344.518 194.132 349.662 202.17 357.85 207.734C358.009 210.265 358.382 212.842 358.481 214.061C358.756 217.45 359.275 220.819 360.036 224.134C360.281 225.202 361.696 225.428 362.263 224.49C364.585 220.652 367.126 216.947 369.859 213.389C374.555 214.815 379.687 215.602 385.065 215.602C407.458 215.602 425.611 201.987 425.611 185.192C425.61 168.397 407.457 154.782 385.064 154.782Z" fill="white"/>
<path d="M372.258 184.658C372.258 188.39 369.232 191.416 365.5 191.416C361.768 191.416 358.742 188.39 358.742 184.658C358.742 180.926 361.767 177.9 365.5 177.9C369.233 177.901 372.258 180.926 372.258 184.658Z" fill="#C3B7FC"/>
<path d="M393.599 184.658C393.599 188.39 390.573 191.416 386.841 191.416C383.109 191.416 380.083 188.39 380.083 184.658C380.083 180.926 383.109 177.9 386.841 177.9C390.573 177.901 393.599 180.926 393.599 184.658Z" fill="#C3B7FC"/>
<path d="M414.939 184.658C414.939 188.39 411.914 191.416 408.181 191.416C404.449 191.416 401.423 188.39 401.423 184.658C401.423 180.926 404.449 177.9 408.181 177.9C411.913 177.901 414.939 180.926 414.939 184.658Z" fill="#C3B7FC"/>
<path d="M353.36 275.475C352.88 276.475 352.38 277.475 351.87 278.475C349.23 283.595 342.94 285.595 337.83 282.935L310 268.455L309.7 268.295C304.49 265.585 302.57 259.085 305.47 253.965L306.78 251.645L308.82 248.045C309.38 247.055 309.76 245.965 309.9 244.835C310.43 240.625 309.82 231.245 294.12 230.395H217.27C202.46 231.195 201.08 239.585 201.41 244.075C201.53 245.575 201.99 247.025 202.73 248.325L204.73 251.865L205.93 253.965C208.82 259.085 206.9 265.585 201.69 268.295L201.56 268.365L173.56 282.935C168.46 285.595 162.16 283.595 159.53 278.475C159.05 277.545 158.59 276.625 158.14 275.705C152.75 264.595 149.77 253.915 154.33 241.425C157.26 233.445 163.56 227.135 171.5 224.105C201.81 212.535 230.61 208.925 255.7 209.315C280.78 208.925 309.58 212.535 339.89 224.105C347.84 227.135 354.13 233.445 357.06 241.425C361.59 253.825 358.69 264.455 353.36 275.475Z" fill="#DD6E5C"/>
<path d="M201.688 268.298L173.562 282.937C168.457 285.594 162.161 283.596 159.526 278.474C159.049 277.546 158.587 276.624 158.143 275.702L204.735 251.862L205.926 253.964C208.824 259.082 206.903 265.586 201.688 268.298Z" fill="#E08675"/>
<path d="M353.359 275.478C352.881 276.471 352.382 277.47 351.866 278.475C349.231 283.596 342.935 285.594 337.83 282.938L309.704 268.299C304.489 265.587 302.568 259.083 305.466 253.967L306.783 251.645L353.359 275.478Z" fill="#E08675"/>
<path opacity="0.3" d="M316.94 247.285C316 251.685 313.1 255.375 311.24 259.475C309.99 262.245 309.32 265.595 310 268.455L309.7 268.295C304.49 265.585 302.57 259.085 305.47 253.965L306.78 251.645L308.82 248.045C309.38 247.055 309.76 245.965 309.9 244.835C310.43 240.625 309.82 231.245 294.12 230.395H217.27C202.46 231.195 201.08 239.585 201.41 244.075C201.53 245.575 201.99 247.025 202.73 248.325L204.73 251.865L205.93 253.965C208.82 259.085 206.9 265.585 201.69 268.295L201.56 268.365C201.92 267.665 202.17 266.905 202.29 266.085C202.8 262.795 201.11 259.605 199.55 256.655C196.04 249.995 192.91 242.075 195.87 235.155C198.21 229.695 203.89 226.325 209.65 224.845C215.09 223.445 220.77 223.395 226.39 223.355C243.96 223.215 261.54 223.085 279.11 222.955C287.78 222.895 296.78 222.905 304.62 226.595C312.47 230.285 318.76 238.805 316.94 247.285Z" fill="#C1463D"/>
<path d="M334.19 312.955V336.728C334.19 338.798 332.516 340.472 330.447 340.472H180.395C178.326 340.472 176.651 338.798 176.651 336.728V312.955C176.651 311.665 177.321 310.469 178.418 309.788C210.228 290.06 217.397 235.525 218.698 222.154C218.863 220.458 220.284 219.162 221.986 219.162H229.676C233.568 219.162 236.724 222.318 236.724 226.21V232.984C236.724 235.054 238.398 236.728 240.462 236.728H270.378C272.442 236.728 274.116 235.054 274.116 232.984V226.21C274.116 222.318 277.272 219.162 281.164 219.162H288.855C290.556 219.162 291.978 220.457 292.143 222.154C293.444 235.526 300.613 290.06 332.423 309.788C333.52 310.469 334.19 311.665 334.19 312.955Z" fill="#C64B42"/>
<path d="M254.597 315.222C273.09 315.222 288.081 300.231 288.081 281.738C288.081 263.245 273.09 248.254 254.597 248.254C236.105 248.254 221.113 263.245 221.113 281.738C221.113 300.231 236.105 315.222 254.597 315.222Z" fill="white"/>
<path d="M267.769 281.735C267.769 286.575 265.169 290.795 261.289 293.085C259.329 294.245 257.039 294.915 254.599 294.915C247.319 294.915 241.419 289.015 241.419 281.735C241.419 276.455 244.529 271.895 249.019 269.805C250.709 269.005 252.609 268.565 254.599 268.565C261.869 268.565 267.769 274.465 267.769 281.735Z" fill="#E4E4E4"/>
<path d="M238.13 281.464C238.13 284.95 235.304 287.776 231.817 287.776C228.331 287.776 225.504 284.95 225.504 281.464C225.504 277.978 228.33 275.151 231.817 275.151C235.303 275.151 238.13 277.978 238.13 281.464Z" fill="#E4E4E4"/>
<path d="M283.689 281.464C283.689 284.95 280.863 287.776 277.376 287.776C273.89 287.776 271.063 284.95 271.063 281.464C271.063 277.978 273.889 275.151 277.376 275.151C280.862 275.151 283.689 277.978 283.689 281.464Z" fill="#E4E4E4"/>
<path d="M254.597 297.931C258.083 297.931 260.91 300.757 260.91 304.244C260.91 307.73 258.084 310.557 254.597 310.557C251.111 310.557 248.284 307.731 248.284 304.244C248.285 300.758 251.111 297.931 254.597 297.931Z" fill="#E4E4E4"/>
<path d="M254.597 252.371C258.083 252.371 260.91 255.197 260.91 258.684C260.91 262.17 258.084 264.997 254.597 264.997C251.111 264.997 248.284 262.171 248.284 258.684C248.285 255.198 251.111 252.371 254.597 252.371Z" fill="#E4E4E4"/>
<path d="M266.241 293.108C268.706 290.643 272.703 290.643 275.168 293.108C277.633 295.573 277.633 299.57 275.168 302.035C272.703 304.5 268.706 304.5 266.241 302.035C263.776 299.57 263.776 295.573 266.241 293.108Z" fill="#E4E4E4"/>
<path d="M234.026 260.892C236.491 258.427 240.488 258.427 242.953 260.892C245.418 263.357 245.418 267.354 242.953 269.819C240.488 272.284 236.491 272.284 234.026 269.819C231.56 267.354 231.56 263.358 234.026 260.892Z" fill="#E4E4E4"/>
<path d="M266.24 269.819C263.775 267.354 263.775 263.357 266.24 260.892C268.705 258.427 272.702 258.427 275.167 260.892C277.632 263.357 277.632 267.354 275.167 269.819C272.702 272.285 268.706 272.285 266.24 269.819Z" fill="#E4E4E4"/>
<path d="M234.026 302.035C231.561 299.57 231.561 295.573 234.026 293.108C236.491 290.643 240.488 290.643 242.953 293.108C245.418 295.573 245.418 299.57 242.953 302.035C240.488 304.5 236.491 304.5 234.026 302.035Z" fill="#E4E4E4"/>
<path d="M334.19 325.651V336.728C334.19 338.798 332.516 340.472 330.447 340.472H180.395C178.326 340.472 176.651 338.798 176.651 336.728V325.651H334.19Z" fill="#DD6E5C"/>
<path opacity="0.41" d="M261.289 293.085C259.329 294.245 257.039 294.915 254.599 294.915C247.319 294.915 241.419 289.015 241.419 281.735C241.419 276.455 244.529 271.895 249.019 269.805L261.289 293.085Z" fill="white"/>
<path d="M125.639 150.024C140.244 150.024 152.083 158.904 152.083 169.857C152.083 175.687 148.728 180.93 143.388 184.559C143.284 186.21 143.041 187.891 142.977 188.685C142.798 190.895 142.459 193.093 141.963 195.255C141.803 195.951 140.881 196.099 140.511 195.487C138.997 192.984 137.339 190.567 135.557 188.247C132.494 189.177 129.147 189.69 125.64 189.69C111.035 189.69 99.1963 180.81 99.1963 169.857C99.1953 158.903 111.034 150.024 125.639 150.024Z" fill="white"/>
<path d="M133.99 169.509C133.99 171.943 135.963 173.916 138.397 173.916C140.831 173.916 142.804 171.943 142.804 169.509C142.804 167.075 140.831 165.101 138.397 165.101C135.963 165.102 133.99 167.075 133.99 169.509Z" fill="#C3B7FC"/>
<path d="M120.072 169.509C120.072 171.943 122.045 173.916 124.479 173.916C126.913 173.916 128.887 171.943 128.887 169.509C128.887 167.075 126.914 165.101 124.479 165.101C122.045 165.102 120.072 167.075 120.072 169.509Z" fill="#C3B7FC"/>
<path d="M106.154 169.509C106.154 171.943 108.127 173.916 110.561 173.916C112.995 173.916 114.968 171.943 114.968 169.509C114.968 167.075 112.995 165.101 110.561 165.101C108.127 165.101 106.154 167.075 106.154 169.509Z" fill="#C3B7FC"/>
<path d="M26.234 243.374C29.694 245.182 32.597 248.059 35.46 250.679C38.412 253.38 41.291 256.161 44.1 259.01C49.722 264.712 55.044 270.703 60.133 276.885C70.342 289.286 79.611 302.429 88.406 315.86C93.35 323.411 98.146 331.056 102.893 338.732C103.805 340.207 101.483 341.576 100.572 340.1C83.928 313.121 66.534 286.358 44.652 263.268C41.57 260.015 38.401 256.845 35.14 253.771C31.907 250.724 28.183 247.955 25.415 244.474C24.951 243.891 25.488 242.984 26.234 243.374Z" fill="#E08675"/>
<path d="M13.9778 236.412C15.5958 234.063 19.5628 234.577 22.0178 235.086C27.8098 236.287 32.8608 240.204 36.9948 244.504C40.0268 247.659 42.7418 251.135 45.1438 254.811C47.5178 258.442 49.7738 262.424 50.7818 266.671C50.9118 267.22 50.4748 267.514 50.0568 267.442C49.7708 267.691 49.3768 267.817 48.9078 267.696C42.4648 266.034 36.2518 263.304 30.5648 259.632C27.7058 257.786 24.9978 255.697 22.4448 253.412C19.7878 251.035 17.1388 248.443 15.2688 245.348C13.7918 242.902 12.2098 238.98 13.9778 236.412Z" fill="#E08675"/>
<path d="M54.6404 267.977C53.4494 264.453 52.3764 260.903 51.4984 257.323C50.6314 253.792 49.9404 250.228 49.4804 246.678C49.0784 243.574 48.9394 240.279 50.4464 237.826C51.8524 235.538 54.3864 234.656 57.1074 235.698C60.0094 236.81 62.2074 239.594 63.7844 242.442C67.0204 248.283 67.9944 254.93 67.6004 261.063C67.3794 264.495 66.7314 267.842 65.5764 270.884C65.0084 272.379 64.3174 273.781 63.4724 275.076C62.7354 276.205 61.9344 277.074 60.9834 277.891C60.8554 278.074 60.6844 278.217 60.4894 278.301C60.4414 278.339 60.3954 278.378 60.3474 278.416C60.1604 278.562 59.9584 278.498 59.8084 278.344C59.5784 278.279 59.3424 278.134 59.1184 277.884C56.7224 275.21 55.7534 271.272 54.6404 267.977Z" fill="#E08675"/>
<path d="M69.7341 283.473C69.7561 279.861 69.8941 276.264 70.2211 272.699C70.5431 269.183 71.0361 265.694 71.7371 262.289C72.3501 259.312 73.2651 256.243 75.4241 254.468C77.4381 252.813 80.0441 252.806 82.2121 254.624C84.5241 256.563 85.6601 259.814 86.2071 262.927C87.3291 269.313 86.1211 275.722 83.8181 281.226C82.5301 284.306 80.8751 287.174 78.8521 289.601C77.8581 290.794 76.7801 291.861 75.5951 292.782C74.5621 293.585 73.5511 294.131 72.4191 294.579C72.2441 294.706 72.0421 294.783 71.8361 294.798C71.7801 294.818 71.7251 294.839 71.6691 294.859C71.4511 294.935 71.2861 294.811 71.1981 294.622C71.0071 294.49 70.8371 294.282 70.7101 293.981C69.3561 290.771 69.7141 286.85 69.7341 283.473Z" fill="#E08675"/>
<path d="M83.297 301.706C83.691 298.115 84.199 294.552 84.89 291.039C85.572 287.575 86.422 284.155 87.469 280.84C88.385 277.942 89.612 274.983 91.942 273.441C94.116 272.002 96.709 272.263 98.678 274.295C100.778 276.462 101.574 279.812 101.797 282.966C102.255 289.433 100.394 295.684 97.537 300.922C95.938 303.853 93.997 306.535 91.735 308.741C90.623 309.825 89.442 310.776 88.168 311.57C87.058 312.262 85.995 312.701 84.824 313.031C84.637 313.14 84.428 313.195 84.221 313.189C84.163 313.203 84.107 313.219 84.048 313.232C83.824 313.285 83.672 313.145 83.603 312.948C83.427 312.797 83.279 312.572 83.183 312.26C82.17 308.927 82.929 305.064 83.297 301.706Z" fill="#E08675"/>
<path d="M96.2869 319.608C96.8869 316.083 97.6019 312.59 98.5009 309.157C99.3869 305.772 100.441 302.438 101.691 299.219C102.783 296.405 104.194 293.546 106.648 292.143C108.937 290.834 111.557 291.226 113.444 293.335C115.456 295.583 116.078 298.934 116.129 302.059C116.234 308.469 113.994 314.546 110.799 319.571C109.011 322.383 106.889 324.931 104.468 326.992C103.278 328.005 102.024 328.883 100.686 329.601C99.5189 330.227 98.4159 330.606 97.2069 330.87C97.0109 330.968 96.7949 331.012 96.5859 330.995C96.5259 331.006 96.4679 331.018 96.4079 331.029C96.1769 331.069 96.0309 330.923 95.9719 330.726C95.8019 330.567 95.6629 330.338 95.5839 330.025C94.7399 326.681 95.7259 322.905 96.2869 319.608Z" fill="#E08675"/>
<path d="M86.186 326.794C82.632 326.397 79.077 326.119 75.53 326.035C72.032 325.952 68.536 326.044 65.098 326.356C62.091 326.629 58.954 327.195 56.928 329.166C55.038 331.004 54.691 333.63 56.196 336.026C57.801 338.581 60.849 340.104 63.839 341.017C69.971 342.888 76.429 342.414 82.142 340.732C85.339 339.79 88.374 338.455 91.024 336.697C92.326 335.833 93.516 334.871 94.576 333.783C95.5 332.835 96.169 331.879 96.757 330.79C96.905 330.628 97.007 330.433 97.049 330.227C97.076 330.173 97.104 330.12 97.13 330.065C97.233 329.854 97.132 329.674 96.959 329.562C96.854 329.355 96.672 329.158 96.393 328.996C93.41 327.26 89.509 327.165 86.186 326.794Z" fill="#E08675"/>
<path d="M73.7359 308.653C70.1399 308.222 66.5409 307.914 62.9449 307.807C59.3979 307.701 55.8509 307.777 52.3559 308.082C49.2999 308.348 46.1039 308.919 44.0029 310.953C42.0429 312.85 41.6279 315.573 43.0979 318.068C44.6649 320.728 47.7209 322.326 50.7319 323.289C56.9069 325.265 63.4699 324.808 69.3039 323.093C72.5679 322.134 75.6789 320.765 78.4079 318.955C79.7489 318.066 80.9789 317.074 82.0799 315.951C83.0399 314.972 83.7399 313.984 84.3629 312.857C84.5169 312.69 84.6249 312.488 84.6719 312.275C84.7009 312.219 84.7299 312.165 84.7589 312.108C84.8679 311.89 84.7709 311.702 84.5969 311.586C84.4949 311.37 84.3149 311.165 84.0359 310.995C81.0529 309.176 77.0979 309.056 73.7359 308.653Z" fill="#E08675"/>
<path d="M15.7522 275.196C15.5192 272.486 16.9392 269.723 19.8142 267.915C24.8722 264.733 31.8442 266.106 37.3252 267.31C43.4442 268.654 49.3432 271.011 54.6852 274.287C55.9852 275.084 57.2752 275.844 58.6252 276.545C59.0342 276.757 59.4822 276.469 59.8332 276.909C62.2532 279.962 50.1942 283.426 48.1062 284.018C42.0172 285.742 35.3122 286.638 29.1032 285.291C23.7712 284.133 16.3072 281.659 15.7522 275.196Z" fill="#E08675"/>
<path d="M30.2622 300.039C29.5002 297.533 30.2882 294.628 32.6382 292.314C36.7742 288.243 43.6262 288.064 49.0372 288.039C55.0782 288.012 61.1152 288.987 66.8092 290.945C68.1952 291.422 69.5632 291.866 70.9782 292.241C71.4062 292.354 71.7712 291.988 72.1902 292.329C75.0842 294.696 64.4002 300.513 62.5472 301.513C57.1482 304.427 51.0012 306.69 44.8742 306.733C39.6142 306.77 32.0782 306.017 30.2622 300.039Z" fill="#E08675"/>
<path d="M72.688 180.077C75.257 182.561 77.06 185.839 78.895 188.882C80.787 192.018 82.594 195.206 84.321 198.435C87.779 204.898 90.899 211.537 93.764 218.283C99.512 231.816 104.244 245.757 108.484 259.829C110.867 267.739 113.097 275.695 115.275 283.664C115.694 285.196 113.3 285.795 112.883 284.263C105.263 256.263 96.929 228.259 83.702 202.316C81.839 198.662 79.879 195.057 77.813 191.513C75.764 188 73.213 184.604 71.684 180.831C71.428 180.199 72.134 179.542 72.688 180.077Z" fill="#DFA331"/>
<path d="M63.7322 170.789C65.7612 169.146 69.1112 170.625 71.1342 171.708C75.9072 174.264 79.3272 179.011 81.8422 183.858C83.6862 187.413 85.1692 191.169 86.3252 195.019C87.4682 198.822 88.4162 202.903 88.2012 206.893C88.1732 207.409 87.7132 207.553 87.3652 207.382C87.0502 207.527 86.6702 207.535 86.2902 207.307C81.0642 204.178 76.3172 200.171 72.2762 195.473C70.2442 193.111 68.4092 190.575 66.7592 187.908C65.0422 185.132 63.3882 182.17 62.5492 178.969C61.8862 176.438 61.5142 172.585 63.7322 170.789Z" fill="#DFA331"/>
<path d="M91.2505 209.04C91.1185 205.637 91.0965 202.243 91.2535 198.872C91.4085 195.547 91.7245 192.239 92.2405 189.003C92.6915 186.173 93.4246 183.244 95.3826 181.481C97.2096 179.837 99.6635 179.72 101.783 181.34C104.042 183.068 105.25 186.082 105.897 188.992C107.224 194.959 106.357 201.046 104.421 206.328C103.338 209.284 101.9 212.055 100.098 214.426C99.2115 215.591 98.2415 216.642 97.1645 217.56C96.2255 218.36 95.2965 218.917 94.2495 219.387C94.0895 219.514 93.9025 219.595 93.7095 219.619C93.6575 219.64 93.6075 219.662 93.5545 219.683C93.3525 219.763 93.1925 219.654 93.1005 219.48C92.9155 219.364 92.7455 219.175 92.6135 218.897C91.2035 215.929 91.3735 212.221 91.2505 209.04Z" fill="#DFA331"/>
<path d="M100.485 226.556C101.44 223.391 102.494 220.268 103.705 217.223C104.899 214.22 106.236 211.284 107.734 208.477C109.044 206.022 110.643 203.565 112.998 202.567C115.195 201.636 117.485 202.305 118.917 204.463C120.444 206.764 120.599 209.913 120.273 212.788C119.603 218.685 116.881 223.998 113.433 228.234C111.503 230.604 109.307 232.693 106.902 234.3C105.72 235.09 104.498 235.747 103.218 236.249C102.103 236.686 101.074 236.903 99.964 237.003C99.777 237.069 99.58 237.085 99.395 237.045C99.341 237.048 99.288 237.052 99.233 237.055C99.022 237.065 98.91 236.913 98.881 236.725C98.748 236.56 98.652 236.333 98.619 236.036C98.262 232.866 99.592 229.516 100.485 226.556Z" fill="#DFA331"/>
<path d="M107.666 246.079C108.942 243.029 110.312 240.032 111.83 237.127C113.327 234.263 114.959 231.48 116.738 228.842C118.293 226.535 120.137 224.255 122.583 223.505C124.864 222.805 127.073 223.706 128.275 226C129.557 228.446 129.387 231.595 128.766 234.421C127.492 240.218 124.238 245.223 120.372 249.081C118.209 251.24 115.809 253.092 113.252 254.442C111.995 255.106 110.711 255.634 109.387 256.001C108.233 256.321 107.187 256.431 106.072 256.417C105.879 256.464 105.681 256.459 105.502 256.4C105.447 256.397 105.394 256.396 105.339 256.393C105.128 256.381 105.032 256.219 105.022 256.028C104.907 255.85 104.834 255.614 104.832 255.316C104.805 252.126 106.473 248.931 107.666 246.079Z" fill="#DFA331"/>
<path d="M114.432 265.163C115.873 262.223 117.406 259.342 119.085 256.561C120.741 253.819 122.53 251.165 124.461 248.663C126.15 246.475 128.129 244.331 130.647 243.736C132.996 243.18 135.194 244.203 136.304 246.543C137.488 249.038 137.166 252.141 136.4 254.898C134.83 260.553 131.289 265.307 127.182 268.891C124.884 270.896 122.36 272.583 119.7 273.765C118.393 274.346 117.065 274.792 115.703 275.076C114.517 275.323 113.45 275.369 112.32 275.289C112.122 275.324 111.922 275.307 111.742 275.238C111.687 275.232 111.633 275.228 111.577 275.221C111.364 275.197 111.274 275.031 111.273 274.842C111.164 274.659 111.102 274.422 111.114 274.126C111.24 270.97 113.085 267.911 114.432 265.163Z" fill="#DFA331"/>
<path d="M103.701 268.853C100.684 267.583 97.635 266.418 94.542 265.425C91.492 264.445 88.4 263.62 85.3 263.003C82.59 262.463 79.689 262.147 77.399 263.352C75.263 264.476 74.278 266.692 74.978 269.185C75.725 271.844 78.006 273.971 80.394 275.547C85.292 278.779 91.085 280.037 96.537 280.04C99.587 280.042 102.598 279.656 105.38 278.8C106.747 278.379 108.041 277.843 109.254 277.162C110.311 276.569 111.146 275.903 111.945 275.1C112.117 274.996 112.257 274.852 112.347 274.682C112.385 274.641 112.423 274.603 112.46 274.561C112.605 274.403 112.564 274.218 112.44 274.075C112.402 273.865 112.292 273.646 112.09 273.431C109.923 271.134 106.522 270.04 103.701 268.853Z" fill="#DFA331"/>
<path d="M97.4728 249.7C94.4278 248.389 91.3478 247.187 88.2188 246.16C85.1328 245.148 81.9978 244.295 78.8508 243.657C76.0988 243.099 73.1458 242.771 70.7728 244.012C68.5598 245.17 67.4908 247.453 68.1348 250.024C68.8218 252.766 71.0898 254.96 73.4838 256.586C78.3938 259.921 84.2728 261.221 89.8388 261.228C92.9538 261.232 96.0388 260.836 98.9038 259.955C100.312 259.522 101.649 258.97 102.907 258.269C104.003 257.658 104.875 256.972 105.713 256.145C105.892 256.038 106.039 255.889 106.136 255.714C106.176 255.672 106.215 255.632 106.255 255.59C106.407 255.427 106.371 255.237 106.248 255.089C106.215 254.873 106.11 254.647 105.909 254.425C103.761 252.056 100.32 250.925 97.4728 249.7Z" fill="#DFA331"/>
<path d="M55.2376 205.297C55.7356 202.857 57.6976 200.8 60.6906 199.957C65.9566 198.474 71.7216 201.487 76.2206 203.964C81.2446 206.73 85.8126 210.328 89.6536 214.588C90.5886 215.625 91.5236 216.626 92.5276 217.591C92.8316 217.883 93.2996 217.746 93.4936 218.224C94.8276 221.532 83.3426 221.448 81.3556 221.426C75.5636 221.362 69.4446 220.41 64.3426 217.618C59.9616 215.222 54.0496 211.116 55.2376 205.297Z" fill="#DFA331"/>
<path d="M61.5363 230.87C61.5173 228.472 62.9613 226.126 65.6243 224.704C70.3103 222.202 76.3723 223.82 81.1293 225.201C86.4403 226.743 91.4873 229.163 95.9793 232.359C97.0723 233.137 98.1583 233.881 99.3033 234.577C99.6503 234.788 100.065 234.56 100.345 234.968C102.272 237.796 91.3843 240.134 89.4993 240.532C84.0043 241.691 78.0203 242.085 72.6313 240.534C68.0033 239.203 61.5823 236.588 61.5363 230.87Z" fill="#DFA331"/>
<path d="M370.747 336.921C369.607 338.585 367.912 339.771 366.187 340.803C359.547 344.809 352.275 347.443 344.756 349.015C344.109 349.169 343.447 349.308 342.784 349.416C340.473 349.862 338.131 350.201 335.789 350.448C335.219 350.525 334.633 350.571 334.063 350.617C332.738 350.74 331.428 350.848 330.104 350.91C329.58 350.941 329.071 350.957 328.563 350.972C326.098 351.065 323.633 351.08 321.183 351.018C320.751 351.018 320.335 351.003 319.92 350.988C319.812 350.988 319.719 350.988 319.612 350.972C318.333 350.941 317.039 350.879 315.714 350.787C315.113 350.772 314.512 350.726 313.896 350.68C311.985 350.542 310.044 350.372 308.088 350.141C306.64 349.972 305.176 349.756 303.728 349.51C302.495 349.325 301.263 349.093 300.046 348.816C289.971 346.705 280.388 342.623 274.025 334.734C272.762 333.178 271.606 330.744 271.683 328.941C271.698 328.34 271.868 327.801 272.222 327.401C272.776 326.738 273.824 326.415 275.534 326.661C283.253 327.801 290.509 331.683 297.488 334.964C298.397 335.38 299.214 334.24 298.505 333.532C291.634 326.599 285.672 318.896 283.854 309.313C283.715 308.604 283.623 307.834 283.746 307.125C283.839 306.57 284.07 306.047 284.547 305.6C284.639 305.538 284.732 305.461 284.824 305.384C285.486 304.891 286.318 304.706 287.135 304.783C288.861 304.922 290.247 306 291.526 307.109C297.319 312.148 302.048 319.111 306.547 325.674C307.194 326.614 308.673 325.982 308.411 324.873C306.855 317.817 305.437 310.237 304.775 303.366C304.405 299.545 304.39 295.309 306.793 292.32C306.901 292.182 307.024 292.043 307.147 291.935C307.363 291.735 307.609 291.565 307.887 291.519C308.149 291.472 308.411 291.519 308.657 291.627C308.965 291.766 309.258 291.981 309.52 292.197C312.925 295.124 315.02 299.561 316.329 303.859C318.163 309.899 320.674 316.893 322.045 323.471C322.137 323.918 322.815 323.856 322.815 323.394C323.031 313.118 324.864 302.426 330.21 293.86C330.919 292.735 332.105 291.965 333.43 291.903C333.692 291.887 333.938 291.903 334.17 291.949C334.74 292.042 335.218 292.272 335.618 292.627C337.067 293.829 337.528 296.371 337.544 298.451C337.621 306.447 336.959 316.584 335.587 325.15C335.449 326.013 336.604 326.398 337.02 325.643C341.134 317.925 346.125 309.204 353.089 305.153C355.046 304.013 357.464 303.073 359.482 304.706C359.729 304.906 359.944 305.137 360.129 305.384C360.499 305.846 360.761 306.385 360.915 306.956C360.93 306.971 360.946 307.002 360.946 307.018C361.593 309.391 360.761 311.686 359.836 313.843C356.508 321.577 351.809 328.726 346.032 334.842C345.308 335.597 346.186 336.783 347.11 336.322C351.116 334.396 354.998 332.531 359.158 330.514C361.207 329.512 363.333 328.496 365.613 328.356C367.801 328.218 370.189 329.081 371.267 330.945C371.328 331.038 371.375 331.114 371.421 331.207C371.591 331.561 371.73 331.947 371.791 332.332C372.119 333.887 371.641 335.582 370.747 336.921Z" fill="#ECBF4C"/>
<path d="M321.185 351.018C320.753 351.018 320.337 351.003 319.922 350.988C319.814 350.988 319.721 350.988 319.614 350.972C315.978 331.19 311.834 311.501 307.15 291.935C307.366 291.735 307.612 291.565 307.89 291.519C308.152 291.472 308.414 291.519 308.66 291.627C313.374 311.316 317.549 331.113 321.185 351.018Z" fill="#E58F31"/>
<path d="M335.62 292.628C333.417 303.643 331.877 314.551 331.322 325.829C330.921 334.194 330.505 342.56 330.105 350.91C329.581 350.941 329.072 350.957 328.564 350.972C328.98 342.098 329.411 333.224 329.858 324.365C330.413 313.349 332.015 302.688 334.172 291.95C334.742 292.043 335.22 292.274 335.62 292.628Z" fill="#E58F31"/>
<path d="M360.918 306.956C355.479 314.813 349.933 322.624 344.972 330.789C341.167 337.06 338.285 343.669 335.79 350.448C335.22 350.525 334.634 350.571 334.064 350.617C336.483 343.946 339.256 337.429 342.907 331.251C348.176 322.346 354.246 313.903 360.131 305.384C360.502 305.847 360.764 306.386 360.918 306.956Z" fill="#E58F31"/>
<path d="M315.717 350.787C315.116 350.772 314.515 350.726 313.899 350.68C305.333 335.243 293.963 321.546 283.748 307.126C283.841 306.571 284.072 306.048 284.549 305.601C295.102 320.56 306.95 334.703 315.717 350.787Z" fill="#E58F31"/>
<path d="M303.73 349.509C302.497 349.324 301.265 349.092 300.048 348.815C290.527 342.298 280.76 336.135 271.685 328.941C271.7 328.34 271.87 327.801 272.224 327.401C282.269 335.442 293.192 342.175 303.73 349.509Z" fill="#E58F31"/>
<path d="M371.795 332.33C369.515 333.347 367.158 334.272 365.063 335.381C361.196 337.415 357.437 339.649 353.801 342.052C350.643 344.132 347.392 346.274 344.757 349.016C344.11 349.17 343.448 349.309 342.785 349.417C344.988 346.798 347.561 344.456 350.719 342.268C354.694 339.525 358.807 336.999 363.06 334.703C365.617 333.316 368.529 332.223 371.272 330.944C371.333 331.037 371.38 331.113 371.426 331.206C371.595 331.56 371.733 331.945 371.795 332.33Z" fill="#E58F31"/>
<path d="M202.46 308.801C202.236 309.068 201.874 309.176 201.533 309.266C197.881 310.219 194.13 310.62 190.353 310.788C188.978 310.853 187.598 310.883 186.223 310.896C184.93 310.913 183.636 310.917 182.347 310.917C174.901 310.917 167.46 310.904 160.014 310.878C158.919 310.874 157.82 310.869 156.725 310.865C156.022 310.865 155.324 310.86 154.621 310.856C150.223 310.839 145.795 310.809 141.48 309.964C141.195 309.908 142.847 293.068 143.002 291.416C143.623 284.772 144.451 278.132 145.934 271.622C147.102 266.5 148.659 260.938 151.164 256.019C153.897 250.651 157.756 246.047 163.469 243.615C163.68 243.524 163.896 243.438 164.111 243.352C168.711 241.563 173.769 240.834 178.64 241.619C180.158 241.865 181.568 242.248 182.882 242.753C192.139 246.302 196.553 255.843 198.675 265.561C201.689 279.336 202.241 293.529 202.723 307.563C202.74 307.994 202.74 308.468 202.46 308.801Z" fill="#F0C9A1"/>
<path d="M152.453 229.516C150.602 226.816 150.148 223.51 149.685 220.361C148.191 210.21 152.444 198.992 163.21 195.099C169.077 192.978 175.901 192.554 181.76 194.917C192.976 199.441 195.176 210.735 194.575 221.027C194.304 225.664 192.648 230.144 189.359 233.746C186.759 236.594 183.705 238.718 179.649 239.366C169.685 240.958 159.383 239.623 152.453 229.516Z" fill="#363271"/>
<path d="M180.007 226.134V244.889C180.007 248.579 177.015 251.572 173.324 251.572C169.633 251.572 166.641 248.58 166.641 244.889V226.134H180.007Z" fill="#F0C9A1"/>
<path d="M180.007 229.686V242.624C177.162 243.486 174.238 244.107 171.277 244.047C169.751 244.017 168.151 243.797 166.642 243.336V231.816C167.401 231.454 168.198 231.165 168.992 230.924C172.544 229.841 176.299 229.419 180.007 229.686Z" fill="#E9B588"/>
<path d="M155.308 219.882C155.308 231.907 161.691 241.655 171.691 241.655C181.692 241.655 189.799 231.907 189.799 219.882C189.799 207.857 181.692 198.109 171.691 198.109C161.691 198.11 155.308 207.858 155.308 219.882Z" fill="#F0C9A1"/>
<path d="M185.197 221.915C184.368 225.389 185.949 228.743 188.728 229.406C191.507 230.069 194.433 227.791 195.261 224.316C196.09 220.842 194.509 217.488 191.73 216.825C188.951 216.162 186.026 218.441 185.197 221.915Z" fill="#F0C9A1"/>
<path d="M150.275 224.316C149.446 220.842 151.027 217.488 153.806 216.825C156.585 216.162 159.51 218.441 160.339 221.915C161.168 225.389 159.587 228.743 156.808 229.406C154.029 230.069 151.104 227.791 150.275 224.316Z" fill="#F0C9A1"/>
<path d="M180.144 215.278C177.186 215.278 174.703 217.321 174.012 220.067H170.538C169.848 217.32 167.364 215.278 164.406 215.278C160.916 215.278 158.077 218.117 158.077 221.607C158.077 225.097 160.916 227.936 164.406 227.936C167.896 227.936 170.735 225.097 170.735 221.607C170.735 221.549 170.728 221.493 170.726 221.436H173.822C173.821 221.493 173.813 221.549 173.813 221.607C173.813 225.097 176.652 227.936 180.142 227.936C183.632 227.936 186.471 225.097 186.471 221.607C186.473 218.117 183.634 215.278 180.144 215.278ZM164.407 226.567C161.672 226.567 159.446 224.342 159.446 221.606C159.446 218.871 161.671 216.645 164.407 216.645C167.142 216.645 169.368 218.87 169.368 221.606C169.367 224.342 167.142 226.567 164.407 226.567ZM180.144 226.567C177.409 226.567 175.183 224.342 175.183 221.606C175.183 218.871 177.408 216.645 180.144 216.645C182.879 216.645 185.105 218.87 185.105 221.606C185.105 224.342 182.879 226.567 180.144 226.567Z" fill="white"/>
<path d="M156.949 215.817C164.091 214.225 169.023 207.523 171.479 200.631C175.078 206.629 180.462 211.54 186.765 214.573C188.113 215.222 190.025 215.65 190.859 214.408C191.164 213.954 191.223 213.382 191.245 212.835C191.503 206.464 187.556 200.125 181.724 197.545C180.192 196.867 178.559 196.433 176.907 196.154C171.17 195.184 164.975 196.174 160.252 199.572C157.179 201.782 154.838 205.062 153.818 208.713C152.933 211.88 152.05 216.909 156.949 215.817Z" fill="#363271"/>
<path d="M156.614 196.391C157.835 199.033 160.821 200.797 163.707 200.423C166.057 200.119 168.161 198.551 170.531 198.558C172.699 198.565 174.629 199.885 176.736 200.398C179.962 201.183 183.599 199.858 185.565 197.183C187.531 194.508 187.709 190.641 185.997 187.797C184.285 184.953 180.784 183.3 177.5 183.785C174.602 184.213 172.185 185.621 169.169 185.506C167.193 185.431 165.237 184.685 163.257 185.006C158.141 185.833 154.341 191.473 156.614 196.391Z" fill="#363271"/>
<path d="M190.354 252.864V310.788C188.979 310.853 187.599 310.883 186.224 310.896C184.931 310.913 183.637 310.917 182.348 310.917C174.902 310.917 167.461 310.904 160.015 310.878C158.92 310.874 157.821 310.869 156.726 310.865V252.864H190.354Z" fill="white"/>
<path opacity="0.37" d="M189.28 278.585C180.5 282.125 170.76 282.135 161.29 282.025C161.79 271.715 162.33 261.415 162.92 251.105C163.17 251.505 163.43 251.985 163.72 252.565C166.06 257.265 168.99 261.445 172.67 265.205C177.66 270.285 183.48 274.445 189.28 278.585Z" fill="#E4E4E4"/>
<path d="M163.47 243.615C163.52 244.975 163.16 246.665 163.1 247.825C163.04 248.915 162.97 250.015 162.92 251.105C162.33 261.415 161.79 271.715 161.29 282.025C161.13 285.305 160.98 288.575 160.83 291.855C160.54 298.185 160.27 304.535 160.01 310.875C158.22 310.875 156.42 310.865 154.62 310.855C150.22 310.835 145.79 310.805 141.48 309.965C141.19 309.905 142.85 293.065 143 291.415C143.62 284.775 144.45 278.135 145.93 271.625C147.1 266.505 148.66 260.935 151.16 256.025C153.9 250.655 157.75 246.045 163.47 243.615Z" fill="#514E92"/>
<path d="M202.46 308.801C202.236 309.068 201.874 309.176 201.533 309.266C196.549 310.568 191.384 310.84 186.223 310.896C185.969 304.545 185.697 298.199 185.408 291.853C184.74 277.172 183.985 262.501 183.14 247.829C183.058 246.402 182.536 244.182 182.881 242.754C192.138 246.303 196.552 255.844 198.674 265.562C201.688 279.337 202.24 293.53 202.722 307.564C202.74 307.994 202.74 308.468 202.46 308.801Z" fill="#514E92"/>
<path d="M185.194 235.238L184.119 233.909C188.378 230.315 190.821 225.045 190.821 219.45V215.661C190.821 206.696 183.679 199.403 174.901 199.403H169.497C160.77 199.403 153.67 206.654 153.67 215.566V219.45H151.981V215.566C151.981 205.703 159.838 197.678 169.496 197.678H174.9C184.609 197.678 192.508 205.745 192.508 215.661V219.45C192.509 225.561 189.843 231.316 185.194 235.238Z" fill="white"/>
<path d="M154.376 229.583H151.745C150.453 229.583 149.396 228.526 149.396 227.234V215.98C149.396 214.688 150.453 213.631 151.745 213.631H154.376C155.668 213.631 156.725 214.688 156.725 215.98V227.233C156.725 228.526 155.668 229.583 154.376 229.583Z" fill="#DFA331"/>
<path d="M193.61 229.583H190.979C189.687 229.583 188.63 228.526 188.63 227.234V215.98C188.63 214.688 189.687 213.631 190.979 213.631H193.61C194.902 213.631 195.959 214.688 195.959 215.98V227.233C195.959 228.526 194.902 229.583 193.61 229.583Z" fill="#DFA331"/>
<path d="M186.448 234.287C186.448 235.395 185.668 236.395 184.538 236.619L181.999 237.119C180.718 237.369 179.468 236.528 179.214 235.252C179.184 235.101 179.171 234.946 179.171 234.795C179.171 234.411 179.261 234.045 179.434 233.717C179.749 233.092 180.339 232.609 181.081 232.462L183.62 231.962C184.642 231.764 185.642 232.255 186.134 233.113C186.263 233.329 186.354 233.57 186.406 233.829C186.435 233.98 186.448 234.136 186.448 234.287Z" fill="#DFA331"/>
<path opacity="0.41" d="M186.133 233.114C185.814 233.739 185.223 234.218 184.486 234.364L181.947 234.864C180.925 235.067 179.921 234.575 179.433 233.717C179.748 233.092 180.338 232.609 181.08 232.462L183.619 231.962C184.642 231.764 185.642 232.256 186.133 233.114Z" fill="#ECBF4C"/>
<path d="M149.567 226.996H148.793C148.413 226.996 148.102 226.685 148.102 226.305V216.477C148.102 216.097 148.413 215.786 148.793 215.786H149.567C149.947 215.786 150.258 216.097 150.258 216.477V226.305C150.258 226.685 149.947 226.996 149.567 226.996Z" fill="#ECBF4C"/>
<path d="M196.13 226.996H195.356C194.976 226.996 194.665 226.685 194.665 226.305V216.477C194.665 216.097 194.976 215.786 195.356 215.786H196.13C196.51 215.786 196.821 216.097 196.821 216.477V226.305C196.821 226.685 196.51 226.996 196.13 226.996Z" fill="#ECBF4C"/>
<path d="M144.83 217.955V262.565C144.83 262.945 144.73 263.295 144.55 263.595C144.2 264.205 143.53 264.615 142.77 264.615H79.1701C78.0401 264.615 77.1201 263.695 77.1201 262.565V217.955C77.1201 216.815 78.0401 215.895 79.1701 215.895H142.77C143.91 215.895 144.83 216.815 144.83 217.955Z" fill="#5F5EA5"/>
<path opacity="0.06" d="M144.55 263.595C144.2 264.205 143.53 264.615 142.77 264.615H79.1701C78.0401 264.615 77.1201 263.695 77.1201 262.565V217.955C77.1201 216.815 78.0401 215.895 79.1701 215.895H83.1101C83.3901 216.875 83.6401 217.825 83.9601 218.565C86.6501 225.005 90.8601 230.745 95.8101 235.635C102.43 242.195 110.35 247.305 118.47 251.875C126.78 256.555 135.45 260.765 144.55 263.595Z" fill="white"/>
<path d="M121.582 242.938H119.97H101.977H100.365L96.3369 273.329H101.977H119.97H125.61L121.582 242.938Z" fill="#514E92"/>
<path d="M116.56 255.228C116.56 258.313 114.059 260.815 110.973 260.815C107.887 260.815 105.386 258.314 105.386 255.228C105.386 252.143 107.887 249.642 110.973 249.642C114.059 249.642 116.56 252.143 116.56 255.228Z" fill="#5F5EA5"/>
<path d="M216.441 279.815L215.931 284.975L215.611 288.135L212.521 319.235L211.991 324.525L211.331 331.255L210.281 341.835L209.551 349.195L209.301 351.685H91.8207L90.8307 341.835L89.7907 331.255L89.1207 324.525L88.5907 319.235L85.5107 288.135L85.1907 284.975L84.6807 279.815H216.441Z" fill="#C3B7FC"/>
<path d="M216.437 279.817L215.611 288.135H85.5106L84.6836 279.817H216.437Z" fill="#A797FB"/>
<path d="M211.33 331.256L210.281 341.835H90.8341L89.7861 331.256H211.33Z" fill="#5F5EA5"/>
<path d="M212.522 319.234L211.993 324.524H89.1218L88.5928 319.234H212.522Z" fill="white"/>
<path opacity="0.11" d="M209.551 349.195L209.301 351.685H91.8207L90.8307 341.835L89.7907 331.255L89.1207 324.525L88.5907 319.235L85.5107 288.135L85.1907 284.975L84.6807 279.815H103.051C103.221 279.935 103.401 280.065 103.571 280.205C111.981 286.905 118.831 296.455 127.191 303.535C144.701 318.355 164.391 330.595 185.421 339.745C191.251 342.285 197.181 344.585 203.201 346.635C204.681 347.145 207.011 348.175 209.551 349.195Z" fill="#5F5EA5"/>
<path d="M221.603 284.974H79.5172C77.4552 284.974 75.7842 283.303 75.7842 281.241V277.061C75.7842 275 77.4552 273.328 79.5172 273.328H221.603C223.665 273.328 225.336 274.999 225.336 277.061V281.241C225.336 283.303 223.665 284.974 221.603 284.974Z" fill="#DFDBFC"/>
</svg>
