<?xml version="1.0" encoding="utf-8"?><!-- Uploaded to: SVG Repo, www.svgrepo.com, Generator: SVG Repo Mixer Tools -->
<svg width="800px" height="800px" viewBox="0 0 24 24" fill="#FF644D" xmlns="http://www.w3.org/2000/svg">
<path d="M16.5749 7.25003C16.6367 7.59473 16.5568 7.93086 16.2367 7.96109L15.7054 8.05698L15.4846 16.374C15.0168 16.6242 14.5911 16.7615 14.2397 16.7493C13.673 16.7296 13.5363 16.5344 13.1293 15.9535L9.82408 10.0074L9.6745 15.6431L10.7624 15.9474C10.7624 15.9474 10.7444 16.6282 9.8619 16.5975L7.42244 16.6648C7.35563 16.5103 7.43656 16.1329 7.68674 16.0686L8.32658 15.9004L8.52431 8.45081L7.64386 8.34411C7.5821 7.99941 7.77252 7.51503 8.26605 7.49448L10.8834 7.39512L14.328 13.4217L14.4666 8.20066L13.5514 8.05443C13.4916 7.63739 13.7802 7.34321 14.1354 7.32029L16.5749 7.25003Z" fill="#FF644D"/>
<path fill-rule="evenodd" clip-rule="evenodd" d="M17.2583 2.83306C13.7917 2.44562 10.2083 2.44562 6.74177 2.83306C4.72971 3.05794 3.10538 4.64295 2.86883 6.66548C2.45429 10.2098 2.45429 13.7903 2.86883 17.3346C3.10538 19.3571 4.72971 20.9422 6.74177 21.167C10.2083 21.5545 13.7917 21.5545 17.2583 21.167C19.2703 20.9422 20.8946 19.3571 21.1312 17.3346C21.5457 13.7903 21.5457 10.2098 21.1312 6.66548C20.8946 4.64295 19.2703 3.05794 17.2583 2.83306ZM6.90838 4.32378C10.2642 3.94871 13.7358 3.94871 17.0916 4.32378C18.4218 4.47244 19.4872 5.52205 19.6414 6.83973C20.0424 10.2683 20.0424 13.7318 19.6414 17.1604C19.4872 18.478 18.4218 19.5277 17.0916 19.6763C13.7358 20.0514 10.2642 20.0514 6.90838 19.6763C5.57827 19.5277 4.51278 18.478 4.35867 17.1604C3.95767 13.7318 3.95767 10.2683 4.35867 6.83973C4.51278 5.52205 5.57827 4.47244 6.90838 4.32378Z" fill="#FF644D"/>
</svg>