<?xml version="1.0" encoding="UTF-8"?>
<!DOCTYPE svg PUBLIC "-//W3C//DTD SVG 1.1//EN" "http://www.w3.org/Graphics/SVG/1.1/DTD/svg11.dtd">
<svg xmlns="http://www.w3.org/2000/svg" version="1.1" width="200px" height="200px" style="shape-rendering:geometricPrecision; text-rendering:geometricPrecision; image-rendering:optimizeQuality; fill-rule:evenodd; clip-rule:evenodd" xmlns:xlink="http://www.w3.org/1999/xlink">
<g><path style="opacity:0.909" fill="#f2ad3c" d="M 41.5,66.5 C 41.8325,53.4829 41.4991,40.4829 40.5,27.5C 36.1168,23.8899 34.4501,19.2233 35.5,13.5C 37.6489,11.2542 40.3156,9.75421 43.5,9C 48.1548,8.50085 52.8215,8.33418 57.5,8.5C 57.5,11.8333 57.5,15.1667 57.5,18.5C 53.2076,18.0349 49.2076,18.8682 45.5,21C 44.283,22.6477 43.4497,24.481 43,26.5C 42.831,40.0063 42.331,53.3396 41.5,66.5 Z"/></g>
<g><path style="opacity:0.905" fill="#f2ad3c" d="M 162.5,13.5 C 163.616,20.2622 161.283,25.2622 155.5,28.5C 155.654,24.9746 154.321,22.1413 151.5,20C 147.94,18.7633 144.273,18.2633 140.5,18.5C 140.5,15.1667 140.5,11.8333 140.5,8.5C 145.179,8.33418 149.845,8.50085 154.5,9C 157.684,9.75421 160.351,11.2542 162.5,13.5 Z"/></g>
<g><path style="opacity:0.982" fill="#ea3724" d="M 35.5,13.5 C 34.4501,19.2233 36.1168,23.8899 40.5,27.5C 41.4991,40.4829 41.8325,53.4829 41.5,66.5C 40.1861,69.1279 38.8527,71.7946 37.5,74.5C 37.5,75.1667 37.1667,75.5 36.5,75.5C 34.9731,75.427 33.9731,76.0937 33.5,77.5C 33.5,77.8333 33.5,78.1667 33.5,78.5C 33.9731,79.9063 34.9731,80.573 36.5,80.5C 36.7376,82.4044 37.7376,83.7377 39.5,84.5C 39.4095,87.1522 40.0762,89.4855 41.5,91.5C 41.8324,103.851 41.499,116.185 40.5,128.5C 36.1168,132.11 34.4501,136.777 35.5,142.5C 33.1633,140.035 31.6633,137.035 31,133.5C 30.6667,120.167 30.3333,106.833 30,93.5C 29.5095,88.1634 26.8428,84.4968 22,82.5C 21.502,79.5184 21.3354,76.5184 21.5,73.5C 25.2368,73.7593 27.5702,72.0926 28.5,68.5C 28.9954,66.5183 29.4954,64.5183 30,62.5C 30.3333,49.1667 30.6667,35.8333 31,22.5C 31.6633,18.9647 33.1633,15.9647 35.5,13.5 Z"/></g>
<g><path style="opacity:1" fill="#ea3924" d="M 162.5,13.5 C 164.837,15.9647 166.337,18.9647 167,22.5C 167.333,35.8333 167.667,49.1667 168,62.5C 168.491,67.8366 171.157,71.5032 176,73.5C 176.498,76.4816 176.665,79.4816 176.5,82.5C 174.62,82.2291 173.287,82.8958 172.5,84.5C 171.167,84.5 170.5,85.1667 170.5,86.5C 168.018,88.5027 167.018,91.1694 167.5,94.5C 167.5,95.1667 167.5,95.8333 167.5,96.5C 166.762,110.018 166.095,123.685 165.5,137.5C 165.443,138.609 165.11,139.609 164.5,140.5C 162.882,137.444 161.382,134.11 160,130.5C 158.629,128.959 157.129,127.625 155.5,126.5C 156.478,114.914 156.811,103.247 156.5,91.5C 157.924,89.4855 158.59,87.1522 158.5,84.5C 160.5,83.1667 162.167,81.5 163.5,79.5C 163.611,78.8826 163.944,78.3826 164.5,78C 160.806,75.3133 158.306,71.8133 157,67.5C 156.796,54.4552 156.296,41.4552 155.5,28.5C 161.283,25.2622 163.616,20.2622 162.5,13.5 Z"/></g>
<g><path style="opacity:0.946" fill="#FF644D" d="M 70.5,27.5 C 83.4131,27.1776 96.2464,27.5109 109,28.5C 109.824,43.7412 109.657,58.9078 108.5,74C 95.5912,74.8217 82.7579,74.6551 70,73.5C 69.1839,58.0923 69.3505,42.759 70.5,27.5 Z M 73.5,29.5 C 84.1719,29.3335 94.8385,29.5002 105.5,30C 106,30.5 106.5,31 107,31.5C 107.667,44.5 107.667,57.5 107,70.5C 106.5,71 106,71.5 105.5,72C 94.8333,72.6667 84.1667,72.6667 73.5,72C 73,71.5 72.5,71 72,70.5C 71.3333,57.5 71.3333,44.5 72,31.5C 72.7172,30.9558 73.2172,30.2891 73.5,29.5 Z"/></g>
<g><path style="opacity:1" fill="#FF644D" d="M 75.5,35.5 C 84.8571,35.1684 94.1904,35.5017 103.5,36.5C 98.8333,36.8333 94.1667,37.1667 89.5,37.5C 84.4492,37.4933 79.7825,36.8266 75.5,35.5 Z"/></g>
<g><path style="opacity:1" fill="#FF644D" d="M 75.5,44.5 C 77.337,44.6395 77.6704,45.3061 76.5,46.5C 75.7025,46.0431 75.3691,45.3764 75.5,44.5 Z"/></g>
<g><path style="opacity:1" fill="#FF644D" d="M 78.5,44.5 C 86.8599,44.1688 95.1932,44.5021 103.5,45.5C 99.3333,45.8333 95.1667,46.1667 91,46.5C 86.4428,46.4915 82.2762,45.8248 78.5,44.5 Z"/></g>
<g><path style="opacity:1" fill="#FF644D" d="M 114.5,50.5 C 119.167,50.5 123.833,50.5 128.5,50.5C 128.5,69.1667 128.5,87.8333 128.5,106.5C 123.786,106.827 119.12,106.493 114.5,105.5C 118.445,104.509 122.445,104.176 126.5,104.5C 126.5,87.1667 126.5,69.8333 126.5,52.5C 122.029,53.0894 118.029,52.4228 114.5,50.5 Z"/></g>
<g><path style="opacity:1" fill="#FF644D" d="M 75.5,54.5 C 77.337,54.6395 77.6704,55.3061 76.5,56.5C 75.7025,56.0431 75.3691,55.3764 75.5,54.5 Z"/></g>
<g><path style="opacity:1" fill="#FF644D" d="M 78.5,54.5 C 86.8599,54.1688 95.1932,54.5021 103.5,55.5C 99.3333,55.8333 95.1667,56.1667 91,56.5C 86.4428,56.4915 82.2762,55.8248 78.5,54.5 Z"/></g>
<g><path style="opacity:1" fill="#FF644D" d="M 75.5,64.5 C 77.337,64.6395 77.6704,65.3061 76.5,66.5C 75.7025,66.0431 75.3691,65.3764 75.5,64.5 Z"/></g>
<g><path style="opacity:1" fill="#FF644D" d="M 78.5,64.5 C 86.8599,64.1688 95.1932,64.5021 103.5,65.5C 99.3333,65.8333 95.1667,66.1667 91,66.5C 86.4428,66.4915 82.2762,65.8248 78.5,64.5 Z"/></g>
<g><path style="opacity:0.354" fill="#f2a63b" d="M 41.5,66.5 C 41.7407,70.0188 40.4074,72.6855 37.5,74.5C 38.8527,71.7946 40.1861,69.1279 41.5,66.5 Z"/></g>
<g><path style="opacity:0.761" fill="#ef7c31" d="M 28.5,68.5 C 27.5702,72.0926 25.2368,73.7593 21.5,73.5C 24.0667,72.2831 26.4,70.6165 28.5,68.5 Z"/></g>
<g><path style="opacity:0.043" fill="#f2a63b" d="M 36.5,75.5 C 36.0269,76.9063 35.0269,77.573 33.5,77.5C 33.9731,76.0937 34.9731,75.427 36.5,75.5 Z"/></g>
<g><path style="opacity:0.004" fill="#f2a039" d="M 33.5,78.5 C 35.0269,78.427 36.0269,79.0937 36.5,80.5C 34.9731,80.573 33.9731,79.9063 33.5,78.5 Z"/></g>
<g><path style="opacity:0.875" fill="#f08634" d="M 163.5,79.5 C 162.167,81.5 160.5,83.1667 158.5,84.5C 159.167,81.8333 160.833,80.1667 163.5,79.5 Z"/></g>
<g><path style="opacity:0.965" fill="#f08f35" d="M 36.5,80.5 C 38.2624,81.2623 39.2624,82.5956 39.5,84.5C 37.7376,83.7377 36.7376,82.4044 36.5,80.5 Z"/></g>
<g><path style="opacity:0.946" fill="#FF644D" d="M 70.5,81.5 C 83.4131,81.1776 96.2464,81.5109 109,82.5C 109.824,97.7412 109.657,112.908 108.5,128C 95.5912,128.822 82.7579,128.655 70,127.5C 69.1839,112.092 69.3505,96.759 70.5,81.5 Z M 73.5,83.5 C 84.1719,83.3335 94.8385,83.5002 105.5,84C 106,84.5 106.5,85 107,85.5C 107.667,98.5 107.667,111.5 107,124.5C 106.5,125 106,125.5 105.5,126C 94.8333,126.667 84.1667,126.667 73.5,126C 73,125.5 72.5,125 72,124.5C 71.3333,111.5 71.3333,98.5 72,85.5C 72.7172,84.9558 73.2172,84.2891 73.5,83.5 Z"/></g>
<g><path style="opacity:0.035" fill="#f2a33a" d="M 176.5,82.5 C 175.486,83.6737 174.153,84.3404 172.5,84.5C 173.287,82.8958 174.62,82.2291 176.5,82.5 Z"/></g>
<g><path style="opacity:0.255" fill="#f2a33a" d="M 172.5,84.5 C 172.167,85.5 171.5,86.1667 170.5,86.5C 170.5,85.1667 171.167,84.5 172.5,84.5 Z"/></g>
<g><path style="opacity:1" fill="#ee6e2e" d="M 158.5,84.5 C 158.59,87.1522 157.924,89.4855 156.5,91.5C 156.41,88.8478 157.076,86.5145 158.5,84.5 Z"/></g>
<g><path style="opacity:1" fill="#FF644D" d="M 75.5,89.5 C 84.8571,89.1684 94.1904,89.5017 103.5,90.5C 98.8333,90.8333 94.1667,91.1667 89.5,91.5C 84.4492,91.4933 79.7825,90.8266 75.5,89.5 Z"/></g>
<g><path style="opacity:1" fill="#f07f32" d="M 39.5,84.5 C 40.9313,85.7804 41.5979,87.4471 41.5,89.5C 41.5,90.1667 41.5,90.8333 41.5,91.5C 40.0762,89.4855 39.4095,87.1522 39.5,84.5 Z"/></g>
<g><path style="opacity:0.745" fill="#f08c35" d="M 170.5,86.5 C 169.488,89.2572 168.488,91.9239 167.5,94.5C 167.018,91.1694 168.018,88.5027 170.5,86.5 Z"/></g>
<g><path style="opacity:0.965" fill="#ec552a" d="M 167.5,96.5 C 167.667,109.171 167.5,121.838 167,134.5C 166.768,135.737 166.268,136.737 165.5,137.5C 166.095,123.685 166.762,110.018 167.5,96.5 Z"/></g>
<g><path style="opacity:1" fill="#FF644D" d="M 75.5,98.5 C 77.337,98.6395 77.6704,99.3061 76.5,100.5C 75.7025,100.043 75.3691,99.3764 75.5,98.5 Z"/></g>
<g><path style="opacity:1" fill="#FF644D" d="M 78.5,98.5 C 86.8599,98.1688 95.1932,98.5021 103.5,99.5C 99.3333,99.8333 95.1667,100.167 91,100.5C 86.4428,100.491 82.2762,99.8248 78.5,98.5 Z"/></g>
<g><path style="opacity:1" fill="#FF644D" d="M 75.5,108.5 C 77.337,108.639 77.6704,109.306 76.5,110.5C 75.7025,110.043 75.3691,109.376 75.5,108.5 Z"/></g>
<g><path style="opacity:1" fill="#FF644D" d="M 78.5,108.5 C 86.8599,108.169 95.1932,108.502 103.5,109.5C 99.3333,109.833 95.1667,110.167 91,110.5C 86.4428,110.491 82.2762,109.825 78.5,108.5 Z"/></g>
<g><path style="opacity:1" fill="#FF644D" d="M 75.5,118.5 C 77.337,118.639 77.6704,119.306 76.5,120.5C 75.7025,120.043 75.3691,119.376 75.5,118.5 Z"/></g>
<g><path style="opacity:1" fill="#FF644D" d="M 78.5,118.5 C 86.8599,118.169 95.1932,118.502 103.5,119.5C 99.3333,119.833 95.1667,120.167 91,120.5C 86.4428,120.491 82.2762,119.825 78.5,118.5 Z"/></g>
<g><path style="opacity:0.913" fill="#f2ad3c" d="M 41.5,89.5 C 42.331,102.66 42.831,115.994 43,129.5C 43.5163,132.034 44.683,134.2 46.5,136C 50.0601,137.237 53.7267,137.737 57.5,137.5C 57.5,140.833 57.5,144.167 57.5,147.5C 53.1539,147.666 48.8206,147.499 44.5,147C 40.8895,146.528 37.8895,145.028 35.5,142.5C 34.4501,136.777 36.1168,132.11 40.5,128.5C 41.499,116.185 41.8324,103.851 41.5,91.5C 41.5,90.8333 41.5,90.1667 41.5,89.5 Z"/></g>
<g><path style="opacity:0.904" fill="#f2ac3c" d="M 155.5,126.5 C 157.129,127.625 158.629,128.959 160,130.5C 161.382,134.11 162.882,137.444 164.5,140.5C 162.053,143.899 158.72,146.065 154.5,147C 149.845,147.499 145.179,147.666 140.5,147.5C 140.5,144.167 140.5,140.833 140.5,137.5C 149.818,139.33 154.818,135.663 155.5,126.5 Z"/></g>
<g><path style="opacity:0.97" fill="#FF644D" d="M 21.5,166.5 C 27.5,166.5 33.5,166.5 39.5,166.5C 39.5,168.5 39.5,170.5 39.5,172.5C 37.5,172.5 35.5,172.5 33.5,172.5C 33.5,178.167 33.5,183.833 33.5,189.5C 31.5,189.5 29.5,189.5 27.5,189.5C 27.5,183.833 27.5,178.167 27.5,172.5C 25.5,172.5 23.5,172.5 21.5,172.5C 21.5,170.5 21.5,168.5 21.5,166.5 Z"/></g>
<g><path style="opacity:0.891" fill="#FF644D" d="M 40.5,167.5 C 43.3553,166.197 46.3553,166.197 49.5,167.5C 50.2485,169.332 51.2485,170.999 52.5,172.5C 54.6648,166.877 58.6648,165.044 64.5,167C 58.8403,173.479 55.8403,180.979 55.5,189.5C 53.5,189.5 51.5,189.5 49.5,189.5C 49.2484,181.003 46.2484,173.669 40.5,167.5 Z"/></g>
<g><path style="opacity:0.935" fill="#FF644D" d="M 65.5,166.5 C 70.1785,166.334 74.8452,166.501 79.5,167C 84.8333,172.333 84.8333,177.667 79.5,183C 76.854,183.497 74.1873,183.664 71.5,183.5C 71.5,185.5 71.5,187.5 71.5,189.5C 69.5,189.5 67.5,189.5 65.5,189.5C 65.5,181.833 65.5,174.167 65.5,166.5 Z M 71.5,171.5 C 74.6571,171.079 76.9905,172.245 78.5,175C 76.6975,177.103 74.3641,177.936 71.5,177.5C 71.5,175.5 71.5,173.5 71.5,171.5 Z"/></g>
<g><path style="opacity:0.92" fill="#FF644D" d="M 86.5,166.5 C 91.5,166.5 96.5,166.5 101.5,166.5C 101.5,168.167 101.5,169.833 101.5,171.5C 98.5,171.5 95.5,171.5 92.5,171.5C 92.5,172.833 92.5,174.167 92.5,175.5C 95.1667,175.5 97.8333,175.5 100.5,175.5C 100.5,177.167 100.5,178.833 100.5,180.5C 97.8333,180.5 95.1667,180.5 92.5,180.5C 92.5,181.833 92.5,183.167 92.5,184.5C 95.5,184.5 98.5,184.5 101.5,184.5C 101.5,186.167 101.5,187.833 101.5,189.5C 96.5,189.5 91.5,189.5 86.5,189.5C 86.5,181.833 86.5,174.167 86.5,166.5 Z"/></g>
<g><path style="opacity:0.563" fill="#FF644D" d="M 110.5,166.5 C 122.276,164.781 127.776,169.781 127,181.5C 123.88,188.974 118.38,191.474 110.5,189C 101.232,181.504 101.232,174.004 110.5,166.5 Z M 113.5,167.5 C 123.686,168.511 127.186,173.844 124,183.5C 118.333,190.167 112.667,190.167 107,183.5C 103.94,175.962 106.107,170.628 113.5,167.5 Z"/></g>
<g><path style="opacity:0.588" fill="#FF644D" d="M 131.5,166.5 C 135.514,166.334 139.514,166.501 143.5,167C 148.175,172.965 147.175,177.632 140.5,181C 142.417,183.498 144.084,186.165 145.5,189C 144.551,189.617 143.718,189.451 143,188.5C 141.877,185.751 140.377,183.251 138.5,181C 136.866,180.506 135.199,180.34 133.5,180.5C 133.817,183.572 133.484,186.572 132.5,189.5C 131.503,181.862 131.169,174.196 131.5,166.5 Z M 133.5,167.5 C 136.649,167.211 139.649,167.711 142.5,169C 145.167,172 145.167,175 142.5,178C 139.518,178.498 136.518,178.665 133.5,178.5C 133.5,174.833 133.5,171.167 133.5,167.5 Z"/></g>
<g><path style="opacity:0.812" fill="#FF644D" d="M 150.5,166.5 C 154.753,169.41 158.753,172.744 162.5,176.5C 166.167,173.167 169.833,169.833 173.5,166.5C 174.665,174.145 174.831,181.812 174,189.5C 173.667,182.5 173.333,175.5 173,168.5C 169.333,172.167 165.667,175.833 162,179.5C 159.036,175.534 155.703,171.867 152,168.5C 151.667,175.5 151.333,182.5 151,189.5C 150.5,181.841 150.334,174.174 150.5,166.5 Z"/></g>
</svg>
